<?xml version="1.0" encoding="utf-8"?>
<!-- Generator: Adobe Illustrator 27.9.0, SVG Export Plug-In . SVG Version: 6.00 Build 0)  -->
<svg version="1.1" id="Layer_1" xmlns="http://www.w3.org/2000/svg" xmlns:xlink="http://www.w3.org/1999/xlink" x="0px" y="0px"
	 viewBox="0 0 1366 768" style="enable-background:new 0 0 1366 768;" xml:space="preserve">
<style type="text/css">
	.st0{stroke:#FFFFFF;stroke-miterlimit:10;}
	.st1{fill:#FFFFFF;stroke:#000000;stroke-miterlimit:10;}
</style>
<polyline class="st0" points="510,314 510,214 610,214 "/>
<g>
	<path class="st0" d="M554.03,256.72c0.4,0.1,0.76,0.29,1.07,0.58s0.58,0.61,0.78,0.98c0.2,0.37,0.36,0.77,0.47,1.2
		s0.18,0.85,0.18,1.25c0,0.87-0.19,1.74-0.58,2.62c-0.38,0.88-1.03,1.51-1.92,1.88l-0.15,0.25c-0.23,0.17-0.61,0.33-1.12,0.5
		c-0.52,0.17-1.07,0.33-1.65,0.48c-0.58,0.15-1.14,0.27-1.67,0.35s-0.95,0.12-1.25,0.12h-0.2v-0.15c-2.07-0.03-3.91-0.37-5.52-1
		c-1.62-0.63-3.23-1.6-4.83-2.9c-0.27-0.23-0.51-0.47-0.73-0.7c-0.22-0.23-0.49-0.43-0.82-0.6c-0.13-0.2-0.29-0.4-0.48-0.6
		c-0.18-0.2-0.38-0.37-0.58-0.5l-0.25-0.45c-0.03-0.03-0.17-0.21-0.4-0.53c-0.23-0.32-0.52-0.69-0.88-1.12
		c-0.35-0.43-0.73-0.91-1.15-1.42c-0.42-0.52-0.8-1-1.15-1.45c-0.35-0.45-0.64-0.83-0.88-1.12c-0.23-0.3-0.37-0.47-0.4-0.5v-0.4
		c-0.97-1.57-1.82-3.11-2.55-4.62c-0.73-1.52-1.47-3.12-2.2-4.82c-0.03,1.13-0.07,2.27-0.1,3.4c-0.03,0.33-0.05,0.65-0.05,0.95
		c0,0.83,0.05,1.67,0.15,2.5c-0.13,0.33-0.2,0.83-0.2,1.5c0,0.7,0.04,1.42,0.12,2.15c0.08,0.73,0.23,1.43,0.42,2.1
		c0.2,0.67,0.43,1.13,0.7,1.4c0.13,0.13,0.33,0.25,0.6,0.35c0.27,0.1,0.53,0.2,0.8,0.3c0.27,0.1,0.5,0.19,0.7,0.28
		c0.2,0.08,0.3,0.17,0.3,0.27v0.1c-0.13,0.13-0.33,0.23-0.58,0.3c-0.25,0.07-0.52,0.11-0.82,0.12c-0.3,0.02-0.58,0.03-0.85,0.03
		h-1.75c-0.43,0-0.87-0.01-1.3-0.03c-0.43-0.02-0.85-0.04-1.25-0.08c-0.4-0.03-0.72-0.08-0.95-0.15l-0.2,0.25h-0.5
		c-0.7,0-1.4-0.02-2.1-0.05c-0.37-0.03-0.73-0.05-1.1-0.05c-0.33,0-0.68,0.02-1.05,0.05c-0.1,0-0.21-0.02-0.32-0.07
		c-0.12-0.05-0.18-0.14-0.18-0.28c0-0.27,0.11-0.43,0.33-0.5c0.22-0.07,0.48-0.14,0.8-0.22c0.32-0.08,0.65-0.23,1-0.45
		c0.35-0.22,0.68-0.59,0.98-1.12c0.17-0.33,0.3-1.24,0.4-2.73c0.1-1.48,0.17-3.27,0.2-5.38v-6.8c-0.03-2.43-0.06-4.74-0.08-6.92
		c-0.02-2.18-0.04-4.12-0.07-5.8c-0.03-1.68-0.05-2.83-0.05-3.42c0-0.53-0.02-0.95-0.07-1.25c-0.05-0.3-0.21-0.7-0.48-1.2
		c-0.03,0.03-0.07,0.05-0.1,0.05c-0.03,0-0.07-0.02-0.1-0.05s-0.05-0.07-0.05-0.1c0-0.03,0.02-0.07,0.05-0.1
		c-0.13-0.17-0.35-0.32-0.65-0.45c-0.3-0.13-0.6-0.26-0.9-0.38c-0.3-0.12-0.57-0.22-0.8-0.33c-0.23-0.1-0.35-0.2-0.35-0.3l0.05-0.25
		l0.7-0.25c1.33,0,2.85-0.03,4.55-0.1c0.5-0.03,1.02-0.05,1.55-0.05c1.13,0,2.28,0.05,3.45,0.15c1.67,0.17,3.23,0.51,4.7,1.03
		c1.47,0.52,2.67,1.38,3.6,2.58v0.45h0.25c0.53,0.87,0.86,1.74,0.97,2.62c0.12,0.88,0.18,1.81,0.18,2.78c0,1.53-0.4,2.79-1.2,3.78
		c-0.8,0.98-1.78,1.89-2.95,2.72l0.25,0.55c-0.03,0.37-0.19,0.66-0.48,0.88c-0.28,0.22-0.48,0.49-0.58,0.83
		c0.23,0.77,0.45,1.64,0.65,2.62c0.2,0.98,0.48,1.84,0.85,2.58l0.25,0.15v0.35c0.57,1.43,1.17,2.89,1.8,4.38
		c0.63,1.48,1.33,2.88,2.1,4.17c0.3,0.5,0.63,0.99,1,1.47c0.37,0.48,0.74,0.98,1.12,1.48c0.38,0.5,0.74,0.99,1.08,1.47
		c0.33,0.48,0.62,0.98,0.85,1.48h0.25l0.1,0.25c0.67,0.6,1.34,1.18,2.02,1.75c0.68,0.57,1.39,1.07,2.12,1.5
		c0.73,0.43,1.52,0.78,2.35,1.05c0.83,0.27,1.73,0.4,2.7,0.4c0.43,0,0.86-0.03,1.27-0.1c0.42-0.07,0.81-0.22,1.17-0.45h0.25
		l0.45-0.6l0.05-0.4c0-0.3-0.13-0.5-0.4-0.6c-0.27-0.1-0.4-0.28-0.4-0.55c0-0.2,0.13-0.33,0.4-0.38c0.27-0.05,0.47-0.08,0.6-0.08
		h0.25c0.07,0.07,0.16,0.13,0.28,0.2c0.12,0.07,0.22,0.1,0.33,0.1c0.17,0,0.25-0.05,0.25-0.15c0-0.47-0.2-0.92-0.6-1.35
		c-0.4-0.43-0.83-0.65-1.3-0.65c-0.37,0-0.76,0.18-1.17,0.55c-0.42,0.37-0.62,0.73-0.62,1.1c0,0.4,0.16,0.72,0.47,0.95
		c0.32,0.23,0.48,0.52,0.48,0.85c0,0.1-0.05,0.2-0.15,0.3l-0.65,0.05c-0.87,0-1.6-0.33-2.2-0.98c-0.6-0.65-0.9-1.41-0.9-2.27
		c0-0.43,0.06-0.91,0.17-1.43c0.12-0.52,0.33-0.96,0.62-1.32l0.45-0.25c0.27-0.4,0.69-0.68,1.28-0.85c0.58-0.17,1.11-0.25,1.57-0.25
		c0.53,0,1.05,0.05,1.55,0.15L554.03,256.72z M516.98,221.92c0.2-0.07,0.35-0.1,0.45-0.1c0.27,0,0.62,0.03,1.05,0.1
		c0.07,0.03,0.15,0.05,0.25,0.05c0.27,0,0.48-0.1,0.65-0.3c-0.17,0.03-0.35,0.05-0.55,0.05h-0.3c-0.3-0.03-0.6-0.05-0.9-0.05h-0.9
		c-0.07,0-0.18,0.01-0.33,0.03s-0.23,0.09-0.23,0.22v0.1h0.2c0.2,0,0.37,0.03,0.5,0.1c0.2,0.1,0.43,0.15,0.7,0.15h0.1L516.98,221.92
		z M517.92,259.33c0.17,0.03,0.34,0.07,0.53,0.1c0.18,0.03,0.36,0.05,0.52,0.05c0.17,0,0.37-0.01,0.6-0.02
		c0.23-0.02,0.4-0.11,0.5-0.28c-0.37,0.07-0.72,0.12-1.05,0.15H517.92c0-0.1-0.1-0.15-0.3-0.15c-0.07,0-0.18,0.02-0.35,0.05h-0.1
		c-0.1,0-0.17-0.05-0.2-0.15c0.17-0.03,0.32-0.08,0.45-0.15c0.13-0.07,0.27-0.13,0.4-0.2c-0.13,0.07-0.27,0.13-0.4,0.2
		c-0.13,0.07-0.28,0.12-0.45,0.15c-0.1-0.03-0.18-0.05-0.25-0.05c-0.13,0-0.25,0.05-0.35,0.15h-0.2v0.15
		c0.13,0.03,0.27,0.07,0.4,0.1c0.13,0.03,0.27,0.05,0.4,0.05C517.31,259.47,517.62,259.42,517.92,259.33z M516.38,259.17
		c0,0.1-0.07,0.15-0.2,0.15v-0.15H516.38z M518.27,222.67l0.05,0.05l0.15,0.1c0.1,0.1,0.15,0.2,0.15,0.3c0-0.1-0.05-0.2-0.15-0.3
		l-0.15-0.1L518.27,222.67l-0.1-0.05L518.27,222.67z M524.33,222.28c-0.37,0.03-0.75,0.05-1.15,0.05c-0.2,0-0.4-0.02-0.6-0.05h-1.75
		c-0.37,0-0.75,0.01-1.15,0.02c-0.4,0.02-0.78,0.06-1.15,0.12c0.87,0.1,1.75,0.15,2.65,0.15h2.6
		C524.11,222.58,524.29,222.47,524.33,222.28z M519.02,257.42c0.07-0.13,0.12-0.26,0.15-0.38c0.03-0.12,0.1-0.22,0.2-0.33h0.1
		c0.1-1.23,0.15-2.47,0.15-3.7c0-1.07-0.05-2.13-0.15-3.2v4.3c0,0.87-0.03,1.73-0.1,2.6c-0.1,0.1-0.17,0.21-0.2,0.33
		C519.14,257.17,519.09,257.29,519.02,257.42h-0.15l-0.1,0.45L519.02,257.42z M518.88,258.58l-0.1-0.05v0.05
		c0,0.07,0.02,0.1,0.05,0.1C518.86,258.67,518.88,258.64,518.88,258.58z M519.38,224.17c0,0.07,0.01,0.19,0.02,0.38
		c0.02,0.18,0.03,0.38,0.05,0.58c0.02,0.2,0.03,0.38,0.05,0.55c0.02,0.17,0.04,0.27,0.08,0.3c-0.07-0.3-0.1-0.6-0.1-0.9
		S519.44,224.47,519.38,224.17c-0.1-0.13-0.22-0.37-0.35-0.7C519.16,223.81,519.27,224.04,519.38,224.17z M519.23,233.58v-0.05
		c0-0.07,0.05-0.1,0.15-0.1L519.23,233.58z M520.52,223.58h0.8c0.4,0,0.82-0.02,1.27-0.05c0.45-0.03,0.85-0.07,1.2-0.1
		c0.35-0.03,0.53-0.1,0.53-0.2l-0.6-0.25c-0.73,0.03-1.45,0.05-2.15,0.05c-0.13,0.03-0.27,0.05-0.4,0.05c-0.6,0-1.2-0.03-1.8-0.1
		l0.1,0.5c0.17,0.03,0.34,0.06,0.52,0.08C520.18,223.57,520.36,223.58,520.52,223.58z M519.58,229.62c0-0.57,0.02-1.15,0.05-1.75
		v-0.25c0-0.47-0.05-0.95-0.15-1.45c0.03,0.27,0.05,0.55,0.05,0.85c0,0.3-0.02,0.58-0.05,0.85v0.45
		C519.48,228.76,519.51,229.19,519.58,229.62z M519.52,231.53c0.03,0,0.05-0.1,0.05-0.3v-0.85c0-0.17-0.02-0.25-0.05-0.25l-0.05,0.1
		v1.25C519.48,231.51,519.49,231.53,519.52,231.53z M519.58,231.78c0.03,0,0.05-0.02,0.05-0.05c0-0.03-0.02-0.05-0.05-0.05l-0.1,0.1
		H519.58z M519.58,232.38l-0.1-0.05v0.05l0.1,0.05V232.38z M519.48,232.72v1.2c0,0.4,0.03,0.8,0.1,1.2v-2.4H519.48z M519.48,235.67
		v1.25c0,0.03,0.02,0.05,0.05,0.05c0.03,0,0.05-0.1,0.05-0.3v-0.85c0-0.17-0.02-0.25-0.05-0.25L519.48,235.67z M519.58,248.38v-11
		h-0.1v11H519.58z M519.52,248.78c-0.03,0-0.05,0.07-0.05,0.2v0.35l0.05,0.35l0.05-0.05v-0.75
		C519.58,248.84,519.56,248.81,519.52,248.78z M519.77,221.78c0.07,0,0.19,0.02,0.38,0.05c0.18,0.03,0.38,0.05,0.58,0.05
		c0.03,0.03,0.08,0.05,0.15,0.05c0.1,0,0.2-0.02,0.3-0.05c0.13-0.03,0.2-0.1,0.2-0.2c-0.1,0.1-0.22,0.15-0.35,0.15
		c-0.07,0-0.15-0.03-0.25-0.1c-0.1-0.03-0.18-0.05-0.25-0.05c-0.13,0-0.25,0.05-0.35,0.15L519.77,221.78z M519.83,224.28
		c0.3,0.1,0.63,0.17,1,0.2c0.37,0.03,0.72,0.05,1.05,0.05h1.85c0.13,0,0.26-0.02,0.38-0.05c0.12-0.03,0.19-0.13,0.23-0.3
		c-0.57-0.1-1.12-0.15-1.65-0.15c-0.47,0-0.92,0.02-1.35,0.05h-1.35L519.83,224.28z M523.77,225.53c0.33,0,0.52-0.13,0.55-0.4
		c-0.7-0.1-1.43-0.15-2.2-0.15c-0.73,0-1.45,0.05-2.15,0.15l0.2,0.25c0.27,0.07,0.48,0.1,0.65,0.1L523.77,225.53z M524.33,226.08
		c-0.17-0.03-0.33-0.06-0.48-0.08c-0.15-0.02-0.31-0.03-0.48-0.03c-0.57,0-1.13,0.02-1.7,0.05h-0.55c-0.4,0-0.78-0.02-1.15-0.05
		v0.45l3.8,0.05C524.14,226.47,524.33,226.34,524.33,226.08z M521.62,226.92h-0.4c-0.17,0-0.34,0.01-0.52,0.03
		c-0.18,0.02-0.34,0.05-0.48,0.1c-0.13,0.05-0.22,0.12-0.25,0.23c0.53,0.1,1.1,0.15,1.7,0.15h1.75c0.17,0,0.35-0.02,0.55-0.05
		c0.2-0.03,0.32-0.15,0.35-0.35c-0.47-0.03-0.92-0.06-1.35-0.08C522.54,226.93,522.09,226.92,521.62,226.92z M519.98,228.22
		c0.27,0.07,0.55,0.11,0.85,0.12c0.3,0.02,0.6,0.03,0.9,0.03h2.2c0.27,0,0.4-0.1,0.4-0.3c-0.33-0.07-0.62-0.1-0.85-0.1h-1.95
		c-0.17,0.03-0.33,0.05-0.5,0.05c-0.33,0-0.65-0.02-0.95-0.05L519.98,228.22z M520.98,229.33h1.45c0.43,0,0.92,0.03,1.45,0.1h0.1
		c0.1,0,0.17-0.03,0.2-0.1c0.07-0.1,0.12-0.2,0.15-0.3c-0.33-0.07-0.65-0.1-0.95-0.1h-2.2c-0.4,0-0.8,0.03-1.2,0.1l0.2,0.25
		L520.98,229.33z M520.92,230.28h1.45c0.43,0,0.92,0.03,1.45,0.1h0.15c0.17,0,0.28-0.13,0.35-0.4c-0.37-0.07-0.73-0.1-1.1-0.1h-0.25
		c-0.13,0.03-0.28,0.05-0.45,0.05c-0.3,0-0.6-0.02-0.9-0.05l-0.35,0.1c-0.17-0.03-0.4-0.07-0.7-0.1h-0.1c-0.27,0-0.43,0.12-0.5,0.35
		L520.92,230.28z M519.98,230.92v0.05c0,0.23,0.32,0.35,0.95,0.35h2.75c0.17,0,0.32-0.03,0.45-0.08c0.13-0.05,0.2-0.16,0.2-0.33
		H519.98z M519.98,232.12c0.13,0.07,0.35,0.12,0.65,0.15s0.62,0.05,0.95,0.05h1.75c0.17,0,0.34-0.02,0.52-0.05
		c0.18-0.03,0.34-0.12,0.48-0.25c-0.47-0.1-0.93-0.15-1.4-0.15h-1.55c-0.13,0.03-0.28,0.05-0.45,0.05c-0.27,0-0.55-0.02-0.85-0.05
		L519.98,232.12z M520.98,233.28c0.57,0,1.13-0.03,1.7-0.1h0.7c0.3,0,0.62,0.02,0.95,0.05v-0.1c0-0.2-0.08-0.3-0.25-0.3
		c-0.2,0.03-0.35,0.08-0.45,0.15c-0.4,0-0.78-0.02-1.15-0.05h-0.4c-0.27,0-0.53,0.02-0.8,0.05c-0.07-0.03-0.15-0.07-0.25-0.1
		s-0.18-0.05-0.25-0.05c-0.3,0-0.57,0.05-0.8,0.15l0.2,0.25L520.98,233.28z M522.33,234.17h0.25c0.13,0,0.28,0.02,0.45,0.05
		c0.2,0.07,0.43,0.1,0.7,0.1c0.3,0,0.5-0.13,0.6-0.4h-4.35l0.35,0.25c0.27,0.07,0.47,0.1,0.6,0.1c0.17,0,0.4-0.05,0.7-0.15h0.25
		c0.13,0,0.25,0.05,0.35,0.15L522.33,234.17z M519.98,234.97c0,0.13,0.07,0.2,0.2,0.2c0.03,0,0.08-0.02,0.15-0.05
		c0.23,0.03,0.45,0.05,0.65,0.05c0.13,0,0.25-0.02,0.35-0.05h0.2c0.27,0,0.53,0.03,0.8,0.1c0.17-0.07,0.33-0.1,0.5-0.1h0.25
		c0.27,0.07,0.53,0.12,0.8,0.15h0.15c0.2,0,0.3-0.13,0.3-0.4h-4.35V234.97z M519.98,236.03c0.57,0.1,1.17,0.16,1.8,0.17
		c0.63,0.02,1.23,0.02,1.8,0.02c0.13,0,0.27-0.02,0.42-0.05c0.15-0.03,0.26-0.12,0.33-0.25c-0.37-0.07-0.72-0.11-1.05-0.12
		c-0.33-0.02-0.68-0.02-1.05-0.02c-0.27,0-0.65,0.01-1.15,0.02C520.58,235.82,520.21,235.89,519.98,236.03z M524.33,236.88
		c-0.67-0.07-1.34-0.11-2.03-0.12c-0.68-0.02-1.34-0.03-1.97-0.03c-0.2,0-0.32,0.05-0.35,0.15l0.2,0.25
		c0.23,0.03,0.46,0.06,0.68,0.08c0.22,0.02,0.44,0.02,0.67,0.02h0.65c0.3,0,0.61-0.02,0.93-0.05c0.32-0.03,0.6-0.07,0.85-0.1
		S524.33,236.97,524.33,236.88z M519.98,237.92c0,0.07,0.08,0.11,0.25,0.12c0.17,0.02,0.36,0.03,0.57,0.05
		c0.22,0.02,0.43,0.03,0.62,0.03h1.35c0.43,0,0.89-0.01,1.38-0.03c0.48-0.02,0.91-0.04,1.27-0.07c0.37-0.03,0.57-0.1,0.6-0.2
		c-0.57,0.03-1.12,0.05-1.65,0.05h-0.8c-0.83-0.03-1.67-0.05-2.5-0.05h-1.1V237.92z M528.98,239.03c0.17,0.03,0.35,0.05,0.55,0.05
		v0.05c0.17,0,0.27-0.12,0.3-0.35c-0.7,0.03-1.4,0.05-2.1,0.05c-0.37,0-0.72-0.02-1.05-0.05h-3.15c-0.6,0-1.19,0.01-1.77,0.02
		c-0.58,0.02-1.17,0.04-1.77,0.08l0.2,0.25c0.13-0.03,0.63-0.05,1.5-0.05h5.45c0.83,0,1.28,0.02,1.35,0.05L528.98,239.03z
		 M519.98,239.97c1.27,0.07,2.53,0.1,3.8,0.1h3.75c0.33,0,0.63-0.02,0.9-0.05h0.3c0.17,0,0.37,0.02,0.6,0.05l0.1-0.1
		c0.07,0.03,0.18,0.05,0.35,0.05v0.05c0.1,0,0.15-0.05,0.15-0.15v-0.1c-0.33-0.03-0.65-0.06-0.95-0.08
		c-0.3-0.02-0.62-0.03-0.95-0.03c-0.53,0-1.18,0.03-1.95,0.1c-0.27,0.03-0.52,0.05-0.75,0.05c-0.43,0-0.8-0.05-1.1-0.15
		c-0.3,0.1-0.6,0.15-0.9,0.15c-0.03,0-0.07-0.02-0.1-0.05c-0.37,0-0.73-0.02-1.1-0.05h-1.1
		C520.66,239.81,520.31,239.88,519.98,239.97z M524.23,240.78c-0.3,0.03-0.58,0.05-0.85,0.05c-0.17,0-0.32-0.02-0.45-0.05h-1.3
		c-0.27,0-0.54,0.01-0.83,0.02c-0.28,0.02-0.56,0.06-0.82,0.12c0.7,0.1,1.42,0.15,2.15,0.15h1.2c0.23,0,0.44-0.03,0.62-0.08
		C524.13,240.95,524.23,240.88,524.23,240.78z M523.33,242.03c0.17,0,0.35-0.01,0.55-0.03c0.2-0.02,0.35-0.11,0.45-0.28h-4.35
		l0.4,0.3H523.33z M519.98,242.92c0.47,0,0.92,0.01,1.35,0.03c0.43,0.02,0.88,0.02,1.35,0.02c0.53,0,1.08-0.05,1.65-0.15
		c-0.3-0.07-0.57-0.1-0.8-0.1h-0.15c-0.3,0.03-0.62,0.07-0.95,0.1l-0.45-0.15l-0.5,0.15c-0.17-0.03-0.35-0.07-0.55-0.1
		c-0.2-0.03-0.38-0.05-0.55-0.05C520.14,242.67,520.01,242.76,519.98,242.92z M519.98,243.88c0.4,0.03,0.79,0.06,1.17,0.08
		c0.38,0.02,0.77,0.02,1.18,0.02c0.33,0,0.67-0.02,1-0.05c0.33-0.03,0.67-0.08,1-0.15c-0.23-0.07-0.48-0.1-0.75-0.1h-0.45
		c-0.13,0.03-0.28,0.05-0.45,0.05c-0.27,0-0.53-0.03-0.8-0.1l-0.15,0.15h-0.2c-0.13,0-0.27-0.02-0.4-0.05
		c-0.2-0.07-0.42-0.1-0.65-0.1C520.31,243.62,520.14,243.71,519.98,243.88z M524.23,244.72c-0.47,0-0.91-0.01-1.33-0.02
		c-0.42-0.02-0.86-0.03-1.32-0.03c-0.53,0-1.07,0.05-1.6,0.15c0.63,0.1,1.27,0.15,1.9,0.15c0.4,0,0.68-0.03,0.85-0.1
		c0.03-0.03,0.08-0.05,0.15-0.05c0.2,0,0.45,0.05,0.75,0.15L524.23,244.72z M519.98,246.83c0.23-0.03,0.47-0.05,0.7-0.05
		c0.23,0,0.47,0.02,0.7,0.05c0.43,0.03,0.88,0.05,1.35,0.05c0.27,0,0.53-0.01,0.8-0.03c0.27-0.02,0.53-0.06,0.8-0.12
		c-0.3,0.03-0.6,0.05-0.9,0.05c-0.37,0-0.73-0.03-1.1-0.1c-0.67-0.07-1.33-0.1-2-0.1C520.09,246.58,519.98,246.66,519.98,246.83z
		 M519.98,247.78h0.65c0.43,0,0.87,0.02,1.3,0.05c0.17,0.03,0.33,0.05,0.5,0.05c0.47,0,0.92-0.07,1.35-0.2h-3.6L519.98,247.78z
		 M519.98,250.78h1.85c0.13,0.03,0.27,0.05,0.4,0.05c0.5,0,0.97-0.07,1.4-0.2h-3.3L519.98,250.78z M520.17,251.58l-0.2,0.15
		c0.17-0.03,0.33-0.05,0.5-0.05c0.17,0,0.37,0.02,0.6,0.05c0.1,0.03,0.2,0.05,0.3,0.05c0.27,0,0.5-0.07,0.7-0.2H520.17z
		 M519.98,254.67h0.35c0,0.03,0.02,0.05,0.05,0.05c0.1,0,0.15-0.03,0.15-0.1v-0.05c-0.07,0-0.17-0.02-0.3-0.05h-0.1
		c-0.1,0-0.15,0.03-0.15,0.1V254.67z M523.88,245.78c-0.53-0.07-1.08-0.11-1.62-0.12s-1.09-0.03-1.62-0.03
		c-0.1,0-0.21,0.02-0.33,0.05c-0.12,0.03-0.19,0.12-0.22,0.25c0.23-0.03,0.48-0.05,0.75-0.05h0.4c0.4,0.03,0.78,0.05,1.15,0.05
		c0.27,0,0.52-0.01,0.75-0.02C523.36,245.88,523.61,245.84,523.88,245.78z M520.08,248.88c0.37-0.07,0.75-0.1,1.15-0.1
		c0.3,0,0.62,0.02,0.95,0.05c0.2,0.03,0.4,0.05,0.6,0.05c0.5,0,0.98-0.08,1.45-0.25h-1.85c-0.63-0.03-1.27-0.05-1.9-0.05
		C520.21,248.58,520.08,248.67,520.08,248.88z M520.08,249.83c0.23-0.03,0.45-0.05,0.65-0.05h0.3c0.3,0.03,0.62,0.05,0.95,0.05
		c0.17,0,0.32-0.01,0.45-0.03c0.13-0.02,0.27-0.06,0.4-0.12c-0.27-0.07-0.57-0.1-0.9-0.1h-0.2c-0.1,0.03-0.2,0.05-0.3,0.05
		c-0.3,0-0.6-0.03-0.9-0.1C520.26,249.53,520.11,249.62,520.08,249.83z M520.08,252.67c0.17-0.03,0.35-0.05,0.55-0.05
		s0.42,0.02,0.65,0.05c0.1,0.03,0.22,0.05,0.35,0.05c0.27,0,0.5-0.07,0.7-0.2h-2L520.08,252.67z M520.08,253.72
		c0.13-0.07,0.27-0.1,0.4-0.1h0.2c0.2,0.07,0.42,0.1,0.65,0.1c0.2,0,0.33-0.03,0.4-0.1c-0.1,0.03-0.2,0.05-0.3,0.05
		c-0.13,0-0.25-0.03-0.35-0.1c-0.23-0.07-0.45-0.1-0.65-0.1C520.26,253.47,520.14,253.56,520.08,253.72z M527.52,259.33
		c-0.97-0.13-1.98-0.2-3.05-0.2h-0.6c-1.3,0.03-2.53,0.13-3.7,0.3c0.5-0.07,1.02-0.1,1.55-0.1h0.85c0.8,0.07,1.6,0.1,2.4,0.1h1.5
		c0.5,0,1-0.03,1.5-0.1c-0.03,0-0.08-0.02-0.15-0.05l-0.05-0.05v-0.05h0.35v-0.1h-0.6V259.33z M520.92,257.88
		c-0.1,0-0.15,0.03-0.15,0.1v0.05L520.92,257.88z M521.38,254.58c-0.07,0-0.15-0.02-0.25-0.05h-0.05c-0.07,0-0.13,0.03-0.2,0.1
		c0.1,0.03,0.18,0.05,0.25,0.05C521.23,254.67,521.31,254.64,521.38,254.58z M521.88,256.22c-0.07-0.07-0.12-0.1-0.15-0.1
		c-0.07,0-0.1,0.07-0.1,0.2C521.73,256.33,521.81,256.29,521.88,256.22z M521.73,241.38c0,0.07,0.03,0.1,0.1,0.1
		c0.03,0,0.05-0.03,0.05-0.1c-0.03,0-0.05-0.02-0.05-0.05h-0.05C521.74,241.33,521.73,241.34,521.73,241.38z M521.98,255.38
		c-0.1,0-0.15,0.03-0.15,0.1c0,0.03,0.02,0.05,0.05,0.05c0.07,0,0.1-0.03,0.1-0.1V255.38z M522.08,254.08c-0.07,0-0.1,0.03-0.1,0.1
		v0.05c0.07,0,0.1-0.03,0.1-0.1V254.08z M522.33,255.53h-0.05c0,0.03-0.02,0.05-0.05,0.05h-0.05c0,0.03,0.02,0.05,0.05,0.05
		L522.33,255.53z M522.58,251.72c0.1,0,0.17-0.02,0.2-0.05c-0.03-0.03-0.1-0.05-0.2-0.05c-0.03,0-0.08,0.03-0.15,0.1H522.58z
		 M522.73,253.72c-0.07-0.07-0.12-0.1-0.15-0.1c-0.1,0-0.15,0.03-0.15,0.1H522.73z M522.62,221.67c-0.07,0-0.1,0.02-0.1,0.05
		c0,0.1,0.11,0.17,0.33,0.2c0.22,0.03,0.36,0.05,0.42,0.05c0.47,0,0.93-0.1,1.4-0.3H522.62z M524.23,255.53
		c-0.23,0-0.45-0.02-0.65-0.05h-0.2c-0.13,0-0.28,0.02-0.45,0.05h-0.15c-0.03,0-0.07,0.02-0.1,0.05h-0.05l0.15,0.05h1.05
		C523.96,255.62,524.09,255.59,524.23,255.53z M522.98,252.53c-0.1,0-0.15,0.02-0.15,0.05c0,0.07,0.12,0.1,0.35,0.1
		c0,0.03,0.02,0.05,0.05,0.05c0.17,0,0.27-0.07,0.3-0.2H522.98z M522.92,249.67c0.23,0.1,0.47,0.15,0.7,0.15
		c0.17,0,0.28-0.05,0.35-0.15l0.2,0.1c0-0.07-0.02-0.13-0.05-0.2h-0.05c-0.03,0-0.07,0.03-0.1,0.1c-0.2-0.1-0.43-0.15-0.7-0.15
		C523.14,249.53,523.02,249.58,522.92,249.67z M523.77,251.58h-0.45c-0.17,0-0.25,0.02-0.25,0.05c0,0.07,0.12,0.1,0.35,0.1
		c0,0.03,0.02,0.05,0.05,0.05C523.64,251.78,523.74,251.71,523.77,251.58z M523.27,240.42c-0.1,0-0.15,0.03-0.15,0.1l0.05,0.05
		c0.07,0,0.1-0.03,0.1-0.1V240.42z M523.62,253.62c-0.07,0-0.12-0.02-0.15-0.05c-0.03-0.03-0.08-0.05-0.15-0.05l-0.1,0.05
		c0.1,0.1,0.17,0.15,0.2,0.15C523.49,253.72,523.56,253.69,523.62,253.62z M523.88,243.17h-0.05c0,0.03-0.02,0.05-0.05,0.05h-0.05
		c0,0.03,0.02,0.05,0.05,0.05L523.88,243.17z M523.98,245.67v0.15c0,0.1,0.02,0.15,0.05,0.15c0.07,0,0.12-0.07,0.15-0.2v-0.1
		c0-0.07-0.02-0.1-0.05-0.1C524.09,245.58,524.04,245.61,523.98,245.67z M524.12,251.72c0.07,0,0.1-0.03,0.1-0.1v-0.05
		c-0.1,0-0.15,0.03-0.15,0.1C524.08,251.71,524.09,251.72,524.12,251.72z M524.12,252.67c0.07,0,0.1-0.03,0.1-0.1v-0.05
		c-0.1,0-0.15,0.03-0.15,0.1C524.08,252.66,524.09,252.67,524.12,252.67z M524.23,254.58h-0.05c0,0.03-0.02,0.05-0.05,0.05h-0.05
		c0,0.03,0.02,0.05,0.05,0.05L524.23,254.58z M524.48,223.58c-0.1,0-0.15,0.03-0.15,0.1v0.05L524.48,223.58z M524.92,241.97
		c0.07,0.2,0.12,0.43,0.15,0.68c0.03,0.25,0.15,0.42,0.35,0.52c-0.1-0.33-0.21-0.66-0.32-0.97c-0.12-0.32-0.26-0.62-0.43-0.92
		c-0.1,0.47-0.15,0.92-0.15,1.35c0,0.07,0.01,0.22,0.02,0.45c0.02,0.23,0.11,0.35,0.28,0.35c0-0.17-0.02-0.42-0.05-0.75v-0.2
		C524.77,242.24,524.83,242.08,524.92,241.97z M524.83,226.58c-0.03-0.23-0.05-0.47-0.05-0.7c0-0.1,0.02-0.22,0.05-0.35v-1
		c0-0.23-0.01-0.46-0.03-0.68c-0.02-0.22-0.06-0.42-0.12-0.62c-0.03,0.17-0.06,0.34-0.07,0.53c-0.02,0.18-0.02,0.36-0.02,0.53
		c0,0.4,0.03,0.8,0.1,1.2v1.2L524.83,226.58z M524.67,236.78c0.07,0.1,0.1,0.2,0.1,0.3v0.1c-0.07,0.17-0.13,0.3-0.2,0.4
		c0.1-0.03,0.23-0.06,0.4-0.08c0.17-0.02,0.33-0.04,0.5-0.08c0.17-0.03,0.32-0.08,0.45-0.15c0.13-0.07,0.2-0.17,0.2-0.3h-0.35
		l-0.25-0.1l-0.45-0.45c-0.1-0.4-0.15-0.78-0.15-1.15v-0.3c0.03-0.07,0.05-0.15,0.05-0.25v-0.15c-0.03-0.13-0.1-0.2-0.2-0.2h-0.1
		c0.03,0.17,0.05,0.32,0.05,0.45v0.2c-0.03,0.23-0.05,0.47-0.05,0.7c0,0.17,0.01,0.33,0.03,0.48c0.02,0.15,0.06,0.29,0.12,0.42
		v-0.25c-0.03,0-0.05-0.02-0.05-0.05c0-0.07,0.03-0.1,0.1-0.1c0.07,0,0.17,0.09,0.33,0.28c0.15,0.18,0.26,0.31,0.32,0.38l0.25,0.1
		l0.05,0.2c0,0.1-0.05,0.16-0.15,0.17c-0.1,0.02-0.18,0.03-0.25,0.03l-0.25,0.05c-0.2,0-0.32-0.08-0.35-0.25
		C524.79,237.01,524.74,236.88,524.67,236.78z M524.58,241.17c0.1,0,0.15-0.03,0.15-0.1c0-0.03-0.02-0.05-0.05-0.05
		c-0.07,0-0.1,0.03-0.1,0.1V241.17z M524.88,244.17c0-0.2-0.1-0.33-0.3-0.4v0.7c0,0.17,0.02,0.33,0.05,0.5
		c0.03,0.17,0.06,0.32,0.08,0.45c0.02,0.13,0.06,0.2,0.12,0.2v-0.1L524.88,244.17z M524.58,245.78c0.1,0.5,0.15,1.02,0.15,1.55
		c0,0.27-0.02,0.53-0.05,0.8c-0.03,0.23-0.05,0.47-0.05,0.7c0,0.6,0.07,1.17,0.2,1.7v-4.5L524.58,245.78z M524.83,253.97
		c-0.03-0.23-0.05-0.45-0.05-0.65c0-0.13,0.02-0.25,0.05-0.35v-1c0-0.2-0.01-0.4-0.03-0.6c-0.02-0.2-0.06-0.4-0.12-0.6
		c-0.03,0.3-0.05,0.57-0.05,0.8v0.4c0.03,0.37,0.05,0.75,0.05,1.15c-0.07,0.2-0.1,0.35-0.1,0.45
		C524.58,253.81,524.66,253.94,524.83,253.97z M524.83,234.28c-0.03-0.63-0.05-1.27-0.05-1.9c0-0.63,0.02-1.25,0.05-1.85
		c0.03-0.37,0.05-0.72,0.05-1.05c0-0.9-0.07-1.8-0.2-2.7c-0.03,0.23-0.05,0.72-0.05,1.45v2.4c0,0.87,0.02,1.66,0.05,2.38
		S524.76,234.14,524.83,234.28z M524.85,256.08c-0.02-0.2-0.02-0.42-0.02-0.65v-0.65c0-0.2-0.05-0.38-0.15-0.55
		c0.03,0.2,0.05,0.42,0.05,0.65c0,0.2-0.02,0.42-0.05,0.65v0.2c0,0.37,0.08,0.7,0.25,1C524.89,256.49,524.87,256.28,524.85,256.08z
		 M525.23,221.83c0,0.03,0.02,0.05,0.05,0.05c0.1,0,0.18-0.05,0.25-0.15c-0.07-0.03-0.13-0.05-0.2-0.05c-0.1,0-0.18,0.05-0.25,0.15
		H525.23z M525.08,223.12c0.03,1.8,0.07,3.6,0.1,5.4v1.1c0,1.43-0.03,2.87-0.1,4.3c0.23-0.13,0.47-0.25,0.72-0.35
		c0.25-0.1,0.51-0.15,0.78-0.15c0.37,0,0.72,0.1,1.05,0.3c0.27,0.17,0.4,0.43,0.4,0.8v0.1c0.23,0,0.46-0.19,0.68-0.58
		c0.22-0.38,0.41-0.83,0.57-1.33c0.17-0.5,0.3-0.99,0.4-1.47c0.1-0.48,0.15-0.83,0.15-1.03c0-1.23-0.23-2.26-0.68-3.07
		c-0.45-0.82-0.99-1.73-1.62-2.73l-0.35-0.15l-0.1-0.35c-0.33-0.13-0.66-0.28-0.98-0.45C525.78,223.31,525.44,223.19,525.08,223.12z
		 M525.08,240.78l0.35,0.25c0.47,0.07,0.98,0.1,1.55,0.1c0.13,0,0.28-0.02,0.45-0.05h2.05c0.37,0,0.63-0.1,0.8-0.3H525.08z
		 M525.88,222.78h-0.1c-0.07,0-0.12-0.02-0.15-0.05c-0.1-0.07-0.2-0.1-0.3-0.1c-0.1,0-0.15,0.05-0.15,0.15
		c0.17,0.07,0.35,0.1,0.55,0.1h0.15V222.78z M525.27,257.47c0-0.07-0.03-0.13-0.1-0.2l0.1,0.25V257.47z M525.52,235.22
		c0.07-0.13,0.1-0.23,0.1-0.3c0-0.03-0.03-0.05-0.1-0.05h-0.1L525.52,235.22z M526.48,236.03h-0.15c-0.1,0-0.2-0.03-0.3-0.1
		c-0.13-0.07-0.28-0.1-0.45-0.1h-0.15l0.4,0.3C525.99,236.12,526.21,236.09,526.48,236.03z M525.98,241.67
		c-0.1,0-0.22,0.02-0.35,0.05c-0.13,0.03-0.2,0.12-0.2,0.25c0.53,0,1.06,0.01,1.58,0.03c0.52,0.02,1.02,0.03,1.52,0.03
		c0.67,0,1.33-0.05,2-0.15c-0.4-0.07-0.82-0.12-1.25-0.15c-0.43-0.03-0.87-0.05-1.3-0.05H525.98z M525.62,243.67
		c-0.07,0-0.1,0.05-0.1,0.15c0,0.03,0.03,0.05,0.1,0.05V243.67z M527.42,234.38c0,0.1,0.03,0.15,0.1,0.15c0.1,0,0.15-0.05,0.15-0.15
		c0-0.07-0.05-0.1-0.15-0.1l-0.1-0.1l-0.6-0.25c-0.07-0.07-0.18-0.1-0.35-0.1c-0.23,0-0.52,0.07-0.85,0.2h0.2
		c0.1,0,0.2-0.02,0.3-0.05c0.13-0.03,0.28-0.05,0.45-0.05h0.25v0.1c0.07-0.03,0.13-0.05,0.2-0.05c0.13,0,0.27,0.07,0.4,0.2v0.1
		c-0.07,0-0.15-0.02-0.25-0.05h-0.05c-0.07,0-0.13,0.03-0.2,0.1c0,0.03,0.03,0.05,0.1,0.05H527.42z M526.23,242.97h4
		c0.3,0,0.48-0.1,0.55-0.3c-0.83,0-1.67,0.02-2.5,0.05h-0.85c-0.53,0-1.08-0.02-1.65-0.05L526.23,242.97z M527.08,247.42
		c0,0.17,0.04,0.31,0.12,0.42c0.08,0.12,0.16,0.26,0.22,0.43c0-0.03-0.06-0.21-0.17-0.53c-0.12-0.32-0.25-0.65-0.4-1
		s-0.3-0.69-0.45-1.03c-0.15-0.33-0.24-0.55-0.27-0.65c0-0.27-0.12-0.55-0.35-0.85c0,0.27,0.12,0.55,0.35,0.85v0.15
		c0,0.2,0.03,0.38,0.1,0.55c0.13,0.1,0.21,0.25,0.23,0.45c0.02,0.2,0.11,0.33,0.27,0.4c0.03,0.17,0.08,0.31,0.15,0.42
		C526.94,247.17,527.01,247.29,527.08,247.42z M526.17,258.47c0.1,0.1,0.23,0.18,0.4,0.25
		C526.41,258.66,526.27,258.58,526.17,258.47c-0.1-0.1-0.23-0.18-0.4-0.25C525.94,258.29,526.08,258.38,526.17,258.47z
		 M527.42,221.83c-0.23,0-0.45-0.02-0.65-0.05h-0.2c-0.13,0-0.28,0.02-0.45,0.05h-0.15c-0.03,0-0.07,0.02-0.1,0.05h-0.05l0.15,0.05
		h1.05C527.16,221.92,527.29,221.89,527.42,221.83z M527.08,222.42c-0.17,0-0.35-0.05-0.55-0.15h-0.2c-0.13,0-0.23,0.05-0.3,0.15
		H527.08z M526.12,223.12c0.1,0,0.15-0.03,0.15-0.1l-0.05-0.05L526.12,223.12z M527.08,243.62c-0.07,0-0.24,0.03-0.53,0.1
		c-0.28,0.07-0.42,0.15-0.42,0.25v0.05c0.7-0.1,1.42-0.15,2.15-0.15h0.35c0.83,0.03,1.67,0.08,2.5,0.15l-0.5-0.3
		c-0.6,0-1.19-0.02-1.77-0.05C528.27,243.64,527.67,243.62,527.08,243.62z M526.6,235.65c0.18,0.05,0.31,0.07,0.38,0.07
		c0.23,0,0.39-0.02,0.48-0.07c0.08-0.05,0.19-0.16,0.32-0.33l-0.1,0.15c-0.17,0.03-0.33,0.06-0.5,0.08
		c-0.17,0.02-0.33,0.03-0.5,0.03h-0.3l-0.15-0.1C526.29,235.54,526.42,235.6,526.6,235.65z M526.48,235.22
		c0.2,0,0.42-0.01,0.65-0.02c0.23-0.02,0.42-0.12,0.55-0.33c-0.33-0.07-0.58-0.1-0.75-0.1
		C526.62,234.78,526.48,234.92,526.48,235.22z M526.48,244.72l0.35,0.25c0.23,0,0.41-0.01,0.52-0.02c0.12-0.02,0.23-0.03,0.35-0.05
		c0.12-0.02,0.26-0.03,0.42-0.03c0.13,0,0.33,0.03,0.6,0.1l0.6-0.15c0.27,0.1,0.53,0.15,0.8,0.15c0.1,0,0.2-0.02,0.3-0.05h0.45
		c0.2,0,0.4,0.02,0.6,0.05l-0.5-0.3L526.48,244.72z M526.58,236.97c0.37,0.07,0.72,0.12,1.05,0.15c0.33,0.03,0.68,0.05,1.05,0.05
		c0.23,0,0.49-0.01,0.78-0.02c0.28-0.02,0.52-0.11,0.72-0.28c-0.37,0-0.73-0.02-1.1-0.05c-0.37-0.03-0.73-0.05-1.1-0.05
		c-0.27,0-0.51,0.01-0.73,0.02C527.03,236.82,526.81,236.88,526.58,236.97z M528.42,237.92c-0.27,0-0.53,0.05-0.8,0.15
		c-0.27,0.1-0.53,0.18-0.8,0.25l0.65,0.05l0.45-0.05v-0.15c0.17-0.07,0.35-0.13,0.55-0.2c0.2-0.07,0.38-0.1,0.55-0.1L528.42,237.92z
		 M528.67,245.62c-0.27,0-0.53,0.01-0.8,0.03c-0.27,0.02-0.5,0.04-0.7,0.07c-0.2,0.03-0.32,0.1-0.35,0.2
		c0.57-0.03,1.12-0.05,1.65-0.05h0.8c0.8,0.03,1.62,0.05,2.45,0.05l-0.5-0.3H528.67z M527.08,237.58c-0.1,0-0.15,0.03-0.15,0.1
		l0.05,0.05c0.07,0,0.1-0.03,0.1-0.1V237.58z M529.33,223.12c-0.37-0.07-0.73-0.12-1.1-0.15h-0.2c-0.3,0-0.58,0.05-0.85,0.15
		c0.23,0.2,0.51,0.32,0.83,0.35c0.32,0.03,0.61,0.05,0.88,0.05c0.6,0,1.18-0.05,1.75-0.15c-0.13-0.07-0.26-0.13-0.38-0.2
		c-0.12-0.07-0.26-0.13-0.42-0.2L529.33,223.12z M532.17,246.62c-0.47,0.03-0.93,0.05-1.4,0.05h-0.65c-0.7-0.03-1.4-0.05-2.1-0.05
		c-0.3,0-0.53,0.07-0.7,0.2l4.35,0.05c0.07,0,0.16-0.01,0.28-0.03C532.07,246.83,532.14,246.76,532.17,246.62z M527.42,234.38
		c0.07,0,0.1-0.02,0.1-0.05v-0.05h-0.1V234.38z M528.38,236.17c0.47,0,0.92-0.01,1.38-0.02s0.91-0.06,1.38-0.12l0.6,0.15l0.35-0.35
		h-3.7c-0.4,0-0.72,0.12-0.95,0.35H528.38z M527.88,224.22c0.03,0.03,0.06,0.07,0.08,0.1c0.02,0.03,0.04,0.07,0.07,0.1
		c-0.03-0.03-0.06-0.07-0.07-0.1C527.93,224.29,527.91,224.26,527.88,224.22l-0.35-0.15L527.88,224.22z M528.58,222.08
		c-0.33-0.03-0.63-0.07-0.9-0.1c0.07,0.07,0.13,0.1,0.2,0.1l0.05-0.05h0.2v0.15c0.23,0,0.45,0.04,0.65,0.12
		c0.2,0.08,0.42,0.12,0.65,0.12C529.19,222.22,528.91,222.11,528.58,222.08z M528.02,247.67l-0.25,0.1h0.75
		c0.53,0,1.08,0.02,1.65,0.05c0.23,0.03,0.45,0.05,0.65,0.05c0.6,0,1.17-0.07,1.7-0.2H528.02z M528.25,249.88
		c-0.05-0.1-0.11-0.18-0.17-0.25C528.14,249.69,528.2,249.78,528.25,249.88s0.09,0.2,0.12,0.3
		C528.34,250.08,528.3,249.97,528.25,249.88z M529.08,238.33h0.45c0.03,0.03,0.07,0.05,0.1,0.05c0.17,0,0.25-0.05,0.25-0.15
		l-0.05-0.05h-0.8c-0.3,0-0.55,0.08-0.75,0.25L529.08,238.33z M528.38,248.88c0.57-0.1,1.12-0.15,1.65-0.15h0.6
		c0.73,0.07,1.48,0.12,2.25,0.15l-0.45-0.3h-3.7c-0.07,0-0.15,0.02-0.25,0.05s-0.15,0.08-0.15,0.15L528.38,248.88z M532.27,224.28
		c-0.3-0.13-0.61-0.21-0.92-0.23c-0.32-0.02-0.64-0.02-0.98-0.02c-0.7,0-1.37,0.05-2,0.15c0.07,0.1,0.17,0.18,0.33,0.25
		c0.15,0.07,0.27,0.1,0.38,0.1h0.75c0.3,0,0.61-0.01,0.92-0.03c0.32-0.02,0.62-0.04,0.9-0.08
		C531.93,224.39,532.14,224.34,532.27,224.28z M528.48,247.22c0-0.07-0.02-0.1-0.05-0.1s-0.05,0.03-0.05,0.1l0.1,0.05V247.22z
		 M528.98,251.2c-0.17-0.32-0.28-0.54-0.35-0.67C528.69,250.66,528.81,250.88,528.98,251.2c0.17,0.32,0.28,0.52,0.35,0.62
		C529.26,251.72,529.14,251.52,528.98,251.2z M529.23,249.67c-0.07,0-0.12-0.02-0.18-0.05c-0.05-0.03-0.11-0.05-0.17-0.05
		c-0.1,0-0.17,0.02-0.2,0.05c0.03,0.1,0.13,0.15,0.3,0.15C529.08,249.78,529.16,249.74,529.23,249.67z M529.62,235.28
		c0.13,0,0.39-0.01,0.77-0.03c0.38-0.02,0.77-0.03,1.18-0.05c0.4-0.02,0.76-0.05,1.07-0.1c0.32-0.05,0.48-0.12,0.48-0.22h-1.55
		c-0.5-0.03-1.02-0.05-1.55-0.05h-0.4c-0.13,0-0.27,0.02-0.4,0.05l-0.25,0.25c0.1,0.03,0.21,0.07,0.32,0.1
		C529.42,235.26,529.52,235.28,529.62,235.28z M529.02,225.78v0.05h0.05c0,0.07,0.03,0.1,0.1,0.1c0-0.07-0.03-0.1-0.1-0.1
		L529.02,225.78z M533.38,225.38c-0.07-0.13-0.22-0.22-0.45-0.28c-0.23-0.05-0.48-0.09-0.75-0.12h-0.85
		c-0.27,0.03-0.47,0.05-0.6,0.05h-1.5l-0.15,0.1l0.35,0.35l0.35,0.05h0.75c0.37,0,0.74-0.01,1.12-0.03
		c0.38-0.02,0.74-0.03,1.08-0.05C533.06,225.43,533.27,225.41,533.38,225.38z M529.58,250.62c-0.17,0-0.27,0.02-0.3,0.05
		c0.07,0.07,0.13,0.1,0.2,0.1c0.03,0,0.1-0.05,0.2-0.15H529.58z M529.33,226.33c0,0.23,0.08,0.43,0.25,0.6
		c0-0.1-0.02-0.21-0.05-0.33C529.49,226.48,529.42,226.39,529.33,226.33z M533.38,249.58c-0.37,0.03-0.72,0.05-1.05,0.05h-1.1
		c-0.33,0-0.68,0.02-1.05,0.05c-0.27-0.07-0.48-0.1-0.65-0.1c-0.1,0-0.15,0.02-0.15,0.05l0.05,0.05c0.27,0.07,0.52,0.1,0.75,0.1
		c0.2,0,0.43-0.03,0.7-0.1l0.6,0.15l0.45-0.15c0.17,0.07,0.33,0.12,0.5,0.15c0.17,0.03,0.33,0.05,0.5,0.05
		C533.16,249.88,533.31,249.78,533.38,249.58z M532.77,234.28c0.07,0,0.24-0.05,0.52-0.15s0.46-0.17,0.53-0.2
		c-0.43,0-0.87-0.01-1.3-0.02c-0.43-0.02-0.87-0.03-1.3-0.03c-0.57,0-1.12,0.05-1.65,0.15c0,0.13,0.02,0.2,0.05,0.2
		c0.1,0,0.17-0.02,0.2-0.05l0.55,0.05L532.77,234.28z M529.67,239.38l-0.1-0.05v0.05l0.1,0.05V239.38z M533.38,226.33
		c0.1,0.07,0.23,0.12,0.4,0.15h0.05c0.1,0,0.15-0.07,0.15-0.2v-0.1c-0.53-0.13-1.08-0.2-1.65-0.2h-0.45
		c-0.33,0.03-0.65,0.05-0.95,0.05c-0.4,0-0.82-0.02-1.25-0.05l0.25,0.45c0.17,0.03,0.34,0.06,0.53,0.08
		c0.18,0.02,0.36,0.03,0.52,0.03c0.33,0,0.74-0.01,1.23-0.03C532.68,226.48,533.08,226.42,533.38,226.33z M530.17,228.92
		c-0.03-0.3-0.08-0.58-0.15-0.85c-0.07-0.27-0.18-0.53-0.35-0.8c0.07,0.27,0.12,0.54,0.18,0.82
		C529.9,228.38,530.01,228.66,530.17,228.92z M530.02,251.58c-0.13,0-0.23,0.02-0.3,0.05c0.07,0.07,0.13,0.1,0.2,0.1
		c0.1,0,0.18-0.05,0.25-0.15H530.02z M530.02,231.78h-0.1c0.03,0.03,0.05,0.07,0.05,0.1c0,0.07-0.02,0.12-0.05,0.15
		c-0.1,0.07-0.15,0.15-0.15,0.25c0,0.07,0.05,0.1,0.15,0.1L530.02,231.78z M532.27,236.42c0.07-0.03,0.16-0.08,0.27-0.15
		c0.12-0.07,0.18-0.15,0.18-0.25l-0.05-0.1c-0.17,0.17-0.36,0.3-0.57,0.4c-0.22,0.1-0.39,0.25-0.52,0.45c-0.17,0.03-0.3,0.1-0.4,0.2
		c-0.1,0.1-0.23,0.18-0.4,0.25c-0.13,0.07-0.3,0.12-0.5,0.15c-0.2,0.03-0.35,0.1-0.45,0.2h0.2c0.27,0,0.5-0.1,0.7-0.3
		c0.23-0.27,0.52-0.43,0.85-0.5c0.07,0.03,0.12,0.05,0.15,0.05c0.1,0,0.18-0.03,0.25-0.1C532.11,236.62,532.21,236.53,532.27,236.42
		z M529.92,222.62h0.1c0.03,0,0.05-0.02,0.05-0.05s-0.02-0.05-0.05-0.05L529.92,222.62z M529.92,250.78c0.67,0,1.32-0.02,1.95-0.05
		h0.65c0.43,0,0.87,0.02,1.3,0.05c-0.53-0.13-1.1-0.2-1.7-0.2h-0.25C531.17,250.61,530.52,250.67,529.92,250.78z M530.27,230.17
		c0.03,0,0.05-0.05,0.05-0.15v-0.15c0-0.13-0.01-0.28-0.03-0.45c-0.02-0.17-0.06-0.3-0.12-0.4c-0.1,0.13-0.15,0.27-0.15,0.4
		c0,0.1,0.05,0.22,0.15,0.35L530.27,230.17z M530.77,237.92c-0.27,0-0.52,0.08-0.75,0.25L530.77,237.92z M530.17,227.28
		c0.7,0.1,1.43,0.15,2.2,0.15c0.7,0,1.43-0.05,2.2-0.15c-0.1-0.1-0.31-0.17-0.62-0.2c-0.32-0.03-0.66-0.07-1.03-0.1
		c-0.37-0.03-0.73-0.05-1.1-0.05h-0.75c-0.13,0-0.32,0.02-0.55,0.05C530.29,227.01,530.17,227.11,530.17,227.28z M530.17,230.58
		c0,0.07,0.02,0.1,0.05,0.1c0.03,0,0.05-0.03,0.05-0.1l-0.1-0.05V230.58z M533.48,233.28c0.17,0,0.34-0.01,0.52-0.03
		c0.18-0.02,0.33-0.11,0.42-0.28c-0.47-0.1-1.07-0.16-1.8-0.17c-0.73-0.02-1.35-0.02-1.85-0.02l-0.5,0.05l-0.1,0.25l0.1,0.15
		L533.48,233.28z M530.38,239.62c-0.03-0.1-0.05-0.18-0.05-0.25c0-0.13,0.05-0.22,0.15-0.25c0.17-0.07,0.25-0.15,0.25-0.25
		c0-0.07-0.03-0.1-0.1-0.1l-0.45,0.5L530.38,239.62z M531.23,223.12c-0.13-0.07-0.26-0.15-0.38-0.25c-0.12-0.1-0.26-0.15-0.43-0.15
		c-0.07,0-0.12,0.02-0.15,0.05c0.17,0.07,0.33,0.14,0.48,0.22C530.9,223.08,531.06,223.12,531.23,223.12l0.25,0.1L531.23,223.12z
		 M530.77,228.33c0.17,0.03,0.32,0.06,0.45,0.08c0.13,0.02,0.28,0.02,0.45,0.02c0.5,0,1.02-0.03,1.55-0.1
		c0.23-0.03,0.48-0.05,0.75-0.05c0.27,0,0.53,0.02,0.8,0.05c-0.07-0.17-0.18-0.28-0.35-0.33c-0.17-0.05-0.33-0.08-0.5-0.08
		l-3.55,0.05L530.77,228.33z M534.12,232.33c0.1,0,0.22-0.02,0.35-0.05c0.13-0.03,0.2-0.12,0.2-0.25c-0.47-0.1-0.9-0.15-1.3-0.15
		h-1.4c-0.17,0.03-0.33,0.05-0.5,0.05c-0.33,0-0.65-0.02-0.95-0.05l-0.15,0.25c0.37,0.1,0.75,0.15,1.15,0.15h1.2L534.12,232.33z
		 M530.38,252.67c0.1,0,0.15-0.03,0.15-0.1v-0.05L530.38,252.67z M531.08,254.67c0.13,0.27,0.28,0.48,0.45,0.65
		c0.1,0.13,0.18,0.27,0.25,0.4c-0.07-0.13-0.15-0.27-0.25-0.4C531.36,255.16,531.21,254.94,531.08,254.67l-0.7-1.05L531.08,254.67z
		 M530.98,241.88c-0.03-0.27-0.08-0.55-0.12-0.85c-0.05-0.3-0.16-0.57-0.33-0.8l-0.05-0.35c0.03,0.13,0.08,0.36,0.15,0.67
		c0.07,0.32,0.13,0.64,0.2,0.98c0.07,0.33,0.15,0.63,0.25,0.9c0.1,0.27,0.18,0.43,0.25,0.5c-0.03-0.17-0.06-0.36-0.08-0.58
		C531.23,242.13,531.14,241.97,530.98,241.88z M531.83,251.58c-0.17,0-0.37-0.02-0.6-0.05h-0.15c-0.2,0-0.37,0.05-0.5,0.15
		c0,0.03,0.08,0.05,0.25,0.05h0.3C531.49,251.69,531.73,251.64,531.83,251.58z M530.77,229.42c0.57-0.07,1.12-0.1,1.65-0.1h0.45
		c0.13,0.03,0.27,0.05,0.4,0.05c0.53,0,1.08-0.03,1.65-0.1l-0.45-0.35h-1.65c-0.53-0.03-1.08-0.05-1.65-0.05l-0.4,0.05l-0.15,0.25
		L530.77,229.42z M534.58,230.22h0.25l0.05,0.05c0.1,0,0.15-0.03,0.15-0.1c0-0.1-0.03-0.17-0.1-0.2c-0.33-0.07-0.62-0.1-0.85-0.1
		c-0.57,0-1.13,0.02-1.7,0.05c-0.37,0.03-0.72,0.05-1.05,0.05h-0.7v0.15c0,0.17,0.08,0.25,0.25,0.25l0.05-0.05
		c0.17,0,0.3-0.03,0.4-0.1c0.47,0.07,0.97,0.11,1.52,0.12c0.55,0.02,1.07,0.03,1.57,0.03h0.1c0.07,0,0.1-0.02,0.1-0.05
		L534.58,230.22z M531.98,231.33c0.1,0,0.32-0.01,0.65-0.03c0.33-0.02,0.67-0.03,1-0.05c0.33-0.02,0.63-0.04,0.9-0.08
		c0.27-0.03,0.4-0.08,0.4-0.15v-0.1h-4.15l-0.15,0.25c0.23,0.07,0.46,0.11,0.67,0.12C531.52,231.32,531.74,231.33,531.98,231.33z
		 M530.98,238.53c0.23-0.2,0.4-0.4,0.5-0.6C531.38,238.12,531.21,238.33,530.98,238.53z M531.48,252.53c-0.17,0-0.27,0.02-0.3,0.05
		c0.07,0.07,0.13,0.1,0.2,0.1c0.03,0,0.1-0.05,0.2-0.15H531.48z M531.42,243.17c0,0.03-0.01,0.06-0.02,0.08
		c-0.02,0.02-0.02,0.04-0.02,0.08c0,0.07,0.03,0.1,0.1,0.1v0.2c0.07,0,0.1-0.05,0.1-0.15c0-0.03-0.03-0.05-0.1-0.05L531.42,243.17z
		 M531.58,254.67l-0.1-0.05v0.05l0.1,0.05V254.67z M531.58,253.67c0.03-0.03,0.1-0.05,0.2-0.05h0.15c0,0.03,0.02,0.05,0.05,0.05
		c0.1,0,0.18-0.03,0.25-0.1c-0.07-0.03-0.13-0.05-0.2-0.05c-0.1,0-0.17,0.03-0.2,0.1L531.58,253.67z M532.17,245.42
		c0-0.17-0.04-0.33-0.12-0.47c-0.08-0.15-0.16-0.31-0.22-0.48v0.15c0,0.1,0.03,0.22,0.1,0.35
		C531.99,245.14,532.08,245.29,532.17,245.42z M532.02,252.58h0.2c0.13,0.03,0.27,0.06,0.42,0.08s0.31,0.02,0.48,0.02h1
		c0,0.03,0.02,0.05,0.05,0.05c0.23,0,0.43-0.07,0.6-0.2h-0.55c-0.27,0-0.55-0.02-0.85-0.05h-0.5
		C532.58,252.47,532.29,252.51,532.02,252.58z M532.08,254.42c0,0.07,0.02,0.1,0.05,0.1c0.03,0,0.05-0.03,0.05-0.1l-0.1-0.05V254.42
		z M532.52,251.58l-0.25,0.15c0.17-0.03,0.33-0.05,0.5-0.05c0.17,0,0.35,0.02,0.55,0.05c0.1,0.03,0.22,0.05,0.35,0.05
		c0.23,0,0.45-0.07,0.65-0.2H532.52z M533.02,224.42c-0.07-0.33-0.27-0.53-0.6-0.6c0.03,0.17,0.11,0.29,0.23,0.38
		C532.77,224.28,532.89,224.36,533.02,224.42v0.1l0.35,0.15c0,0.13,0.05,0.24,0.15,0.33c0.1,0.08,0.2,0.16,0.3,0.22l0.15,0.15
		c-0.17-0.17-0.32-0.34-0.45-0.53C533.39,224.67,533.23,224.53,533.02,224.42z M532.52,256.83c0.13,0.07,0.22,0.15,0.25,0.25
		c0.03,0.1,0.08,0.18,0.15,0.25c-0.07-0.07-0.12-0.15-0.15-0.25C532.74,256.97,532.66,256.89,532.52,256.83z M532.83,247.2
		c0.07,0.15,0.1,0.31,0.1,0.47C532.92,247.51,532.89,247.35,532.83,247.2c-0.07-0.15-0.12-0.31-0.15-0.48
		C532.71,246.89,532.76,247.05,532.83,247.2z M533.48,248.72c0-0.17-0.04-0.31-0.12-0.42c-0.08-0.12-0.16-0.24-0.23-0.38
		C533.12,248.22,533.24,248.49,533.48,248.72z M533.67,254.67c-0.07-0.07-0.13-0.1-0.2-0.1c-0.07,0-0.1,0.03-0.1,0.1H533.67z
		 M533.73,256.22h-0.05c0,0.03-0.02,0.05-0.05,0.05h-0.05c0,0.03,0.02,0.05,0.05,0.05L533.73,256.22z M533.83,249.47
		c0-0.03-0.02-0.11-0.05-0.22c-0.03-0.12-0.07-0.17-0.1-0.17s-0.05,0.03-0.05,0.1v0.05L533.83,249.47z M533.73,252.92l0.1,0.05
		v-0.05c0-0.07-0.02-0.1-0.05-0.1C533.74,252.83,533.73,252.86,533.73,252.92z M533.88,234.88l0.05-0.05l0.1-0.2l0.2-0.3l0.05-0.1
		l-0.1,0.15h-0.1l-0.1,0.35L533.88,234.88l-0.05,0.1L533.88,234.88z M535.02,253.62c-0.17-0.07-0.38-0.12-0.65-0.15h-0.15
		c-0.2,0-0.33,0.05-0.4,0.15H535.02z M534.15,250.33c0.08,0.13,0.18,0.28,0.27,0.45c0,0.17,0.04,0.31,0.12,0.42
		c0.08,0.12,0.16,0.24,0.23,0.38c0-0.17-0.05-0.33-0.15-0.48c-0.1-0.15-0.2-0.31-0.3-0.47c0-0.3-0.12-0.57-0.35-0.8
		C534.01,250.03,534.07,250.19,534.15,250.33z M534.27,255.62c-0.07-0.07-0.13-0.1-0.2-0.1c-0.07,0-0.1,0.03-0.1,0.1H534.27z
		 M534.08,258.92c0.07,0,0.1-0.05,0.1-0.15c0-0.03-0.03-0.05-0.1-0.05V258.92z M535.38,254.58c-0.17,0-0.35-0.02-0.55-0.05h-0.15
		c-0.17,0-0.32,0.03-0.45,0.1c0.03,0.07,0.15,0.1,0.35,0.1c0.07,0,0.13-0.02,0.2-0.05C535.11,254.67,535.31,254.64,535.38,254.58z
		 M534.67,252.92h-0.05c0,0.03-0.02,0.05-0.05,0.05h-0.05c0,0.03,0.02,0.05,0.05,0.05L534.67,252.92z M534.77,233.33
		c0.07,0,0.1-0.03,0.1-0.1c0-0.03-0.01-0.06-0.02-0.07c-0.02-0.02-0.02-0.04-0.02-0.08L534.77,233.33c-0.07,0-0.1,0.02-0.1,0.05
		c0,0.1,0.03,0.15,0.1,0.15V233.33z M535.02,227.53c0-0.17-0.02-0.3-0.07-0.4c-0.05-0.1-0.11-0.22-0.18-0.35L535.02,227.53
		c0.07,0.27,0.11,0.54,0.12,0.82c0.02,0.28,0.09,0.56,0.23,0.83c0-0.27-0.02-0.54-0.05-0.83
		C535.29,228.07,535.19,227.79,535.02,227.53z M535.02,256.47h-0.05c0,0.03-0.02,0.05-0.05,0.05h-0.05c0,0.03,0.02,0.05,0.05,0.05
		L535.02,256.47z M535.27,231.78c0-0.17,0.01-0.33,0.02-0.48c0.02-0.15,0.04-0.31,0.08-0.47l-0.1,0.7h-0.15
		c0.03,0.1,0.05,0.18,0.05,0.25c0,0.13-0.03,0.25-0.1,0.35c-0.1,0.17-0.15,0.35-0.15,0.55c0,0.07,0.03,0.17,0.1,0.3
		c0.07-0.2,0.12-0.4,0.18-0.6C535.25,232.17,535.27,231.97,535.27,231.78z M535.02,255.62h0.5c0.13,0,0.28-0.03,0.45-0.1h-0.25
		C535.52,255.53,535.29,255.56,535.02,255.62z M535.12,257.88c0,0.07,0.03,0.1,0.1,0.1c0.03,0,0.05-0.03,0.05-0.1
		c-0.03,0-0.05-0.02-0.05-0.05h-0.05C535.14,257.83,535.12,257.84,535.12,257.88z M535.48,230.72c0-0.13,0.03-0.38,0.1-0.75v-0.2
		c0-0.23-0.07-0.4-0.2-0.5c-0.07,0.27-0.1,0.5-0.1,0.7C535.27,230.21,535.34,230.46,535.48,230.72z M535.48,252.78
		c-0.07,0-0.1,0.03-0.1,0.1v0.05c0.1,0,0.15-0.03,0.15-0.1C535.52,252.79,535.51,252.78,535.48,252.78z M535.9,253.7
		c0.12,0.25,0.23,0.42,0.33,0.52C536.12,254.12,536.02,253.95,535.9,253.7c-0.12-0.25-0.21-0.44-0.27-0.58
		C535.69,253.26,535.78,253.45,535.9,253.7z M535.73,260.58c0,0.07,0.02,0.13,0.07,0.2c0.05,0.07,0.11,0.1,0.18,0.1
		c0.07,0,0.1-0.05,0.1-0.15l-0.35-0.25V260.58z M536.12,256.47c-0.1,0-0.17,0.02-0.2,0.05c0.03,0.03,0.1,0.05,0.2,0.05
		c0.07,0,0.13-0.03,0.2-0.1H536.12z M536.08,259.53c0.03,0,0.05-0.02,0.05-0.05s-0.02-0.05-0.05-0.05l-0.1,0.1H536.08z
		 M536.42,254.67c0.03,0,0.05-0.02,0.05-0.05s-0.02-0.05-0.05-0.05l-0.1,0.1H536.42z M536.67,258.38c-0.07-0.07-0.12-0.1-0.15-0.1
		c-0.07,0-0.1,0.03-0.1,0.1c0.03,0.03,0.1,0.05,0.2,0.05C536.66,258.42,536.67,258.41,536.67,258.38z M536.48,254.83
		c0,0.07,0.03,0.1,0.1,0.1C536.58,254.86,536.54,254.83,536.48,254.83z M536.88,256.58c-0.07-0.07-0.13-0.1-0.2-0.1
		c-0.07,0-0.1,0.03-0.1,0.1H536.88z M536.92,255.38l0.25,0.5C537.17,255.71,537.09,255.54,536.92,255.38z M537.77,258.47
		c-0.07,0-0.13-0.02-0.2-0.05h-0.05c-0.07,0-0.13,0.03-0.2,0.1c0.07,0.03,0.13,0.05,0.2,0.05
		C537.62,258.58,537.71,258.54,537.77,258.47z M537.77,256.72c0-0.2-0.13-0.37-0.4-0.5C537.38,256.42,537.51,256.59,537.77,256.72z
		 M537.42,262.08l0.1,0.1l0.15,0.15c0.07,0.03,0.11,0.07,0.12,0.1c0.02,0.03,0.06,0.08,0.12,0.15c-0.07-0.07-0.11-0.12-0.12-0.15
		c-0.02-0.03-0.06-0.07-0.12-0.1l-0.15-0.15L537.42,262.08l-0.05-0.05L537.42,262.08z M537.88,258.72c0.1,0,0.15-0.03,0.15-0.1
		l-0.05-0.05L537.88,258.72z M538.23,258.47h-0.05c0,0.03-0.02,0.05-0.05,0.05h-0.05c0,0.03,0.02,0.05,0.05,0.05L538.23,258.47z
		 M538.23,260.88c0.1,0,0.15-0.03,0.15-0.1c0-0.03-0.02-0.05-0.05-0.05c-0.07,0-0.1,0.03-0.1,0.1V260.88z M538.73,263.08
		c-0.07,0-0.12,0.02-0.15,0.05c0.07,0.07,0.15,0.1,0.25,0.1C538.83,263.12,538.79,263.08,538.73,263.08z M539.08,258.58l0.35,0.4
		c0.03,0.03,0.12,0.12,0.25,0.25c0.07,0.1,0.1,0.18,0.1,0.25v0.05c0.2,0.3,0.4,0.5,0.6,0.6c-0.07-0.17-0.14-0.31-0.23-0.42
		c-0.08-0.12-0.21-0.21-0.38-0.28c-0.07-0.07-0.12-0.14-0.17-0.22c-0.05-0.08-0.11-0.16-0.18-0.23L539.08,258.58l-0.15-0.2
		L539.08,258.58z M541.23,264.7c-0.23-0.08-0.43-0.17-0.6-0.28l-0.7-0.45l-0.4-0.25l-0.25-0.15l-0.05-0.05l-0.05-0.1v0.05l0.05,0.05
		c0.03,0.03,0.05,0.1,0.05,0.2l0.4,0.1v0.1c0.03,0.03,0.15,0.08,0.35,0.15c0.17,0.03,0.25,0.08,0.25,0.15l-0.05,0.05
		c0.07,0.03,0.2,0.08,0.4,0.15c0.17,0.03,0.25,0.1,0.25,0.2l-0.05,0.05c0.17,0.03,0.33,0.07,0.5,0.1c0.17,0.03,0.32,0.12,0.45,0.25
		C541.64,264.89,541.46,264.78,541.23,264.7z M539.52,259.78c0,0.07,0.03,0.1,0.1,0.1c0.03,0,0.05-0.03,0.05-0.1
		c-0.03,0-0.05-0.02-0.05-0.05h-0.05C539.54,259.72,539.52,259.74,539.52,259.78z M540.48,262.17c0-0.03-0.02-0.11-0.08-0.22
		c-0.05-0.12-0.09-0.17-0.12-0.17c-0.03,0-0.05,0.03-0.05,0.1v0.05L540.48,262.17z M540.48,262.62c-0.07,0-0.1,0.03-0.1,0.1v0.05
		L540.48,262.62z M541.08,260.72c-0.1,0-0.15,0.03-0.15,0.1l0.05,0.05L541.08,260.72z M542.73,262.17c-0.03-0.03-0.1-0.07-0.2-0.1
		h-0.1c-0.03,0-0.05,0.02-0.05,0.05v0.05H542.73z M542.38,265.38c0.1,0,0.15-0.03,0.15-0.1v-0.05L542.38,265.38z M542.73,265.47
		c0.03,0,0.05-0.02,0.05-0.05s-0.02-0.05-0.05-0.05l-0.1,0.1H542.73z M542.92,265.58c0.17,0,0.32,0.02,0.45,0.08
		c0.13,0.05,0.28,0.11,0.45,0.17c-0.17-0.07-0.32-0.12-0.45-0.17C543.24,265.6,543.09,265.58,542.92,265.58z M545.92,264.28
		c0.13,0.1,0.3,0.2,0.5,0.3c0.2,0.1,0.38,0.15,0.55,0.15c0.1,0,0.18-0.02,0.25-0.05c-0.23-0.07-0.45-0.14-0.65-0.22
		C546.38,264.37,546.16,264.31,545.92,264.28c-0.2-0.23-0.43-0.4-0.7-0.5c-0.27-0.1-0.53-0.2-0.8-0.3c-0.13-0.27-0.38-0.43-0.75-0.5
		l-0.35-0.2l-0.35-0.25v0.1l0.35,0.15v0.1l0.35,0.1v0.15c0.23,0.23,0.48,0.35,0.75,0.35v0.1c0.27,0.1,0.52,0.22,0.75,0.38
		C545.41,264.1,545.66,264.21,545.92,264.28z M543.83,264.53c-0.1,0-0.15,0.03-0.15,0.1v0.05L543.83,264.53z M546.27,266.42
		c0.03,0,0.05-0.02,0.05-0.05s-0.02-0.05-0.05-0.05l-0.1,0.1H546.27z M547.83,265.03c0.07-0.07,0.1-0.12,0.1-0.15
		s-0.05-0.05-0.15-0.05l-0.3,0.05L547.83,265.03z M547.62,266.58h0.75c0.27,0,0.48-0.08,0.65-0.25h-0.85c-0.1,0-0.21,0.01-0.32,0.02
		C547.73,266.37,547.66,266.44,547.62,266.58z M550.22,265.22h0.2v0.05c0.07,0,0.1-0.03,0.1-0.1c0-0.07-0.05-0.1-0.15-0.1h-0.05
		c-0.13,0.03-0.22,0.05-0.25,0.05h-0.25c-0.2,0-0.37-0.02-0.5-0.05c-0.27-0.07-0.53-0.1-0.8-0.1l-0.45,0.05
		c0.17,0.07,0.36,0.12,0.57,0.15c0.22,0.03,0.41,0.05,0.57,0.05l0.35,0.05L550.22,265.22z M548.23,259.62
		c-0.03,0-0.05,0.08-0.05,0.25c-0.03,0.03-0.05,0.07-0.05,0.1c0,0.13,0.07,0.23,0.2,0.3c0-0.07-0.01-0.19-0.03-0.38
		C548.28,259.72,548.26,259.62,548.23,259.62z M548.33,261.08c0.07-0.07,0.1-0.12,0.1-0.15s-0.03-0.05-0.1-0.05
		c0-0.07,0.02-0.13,0.05-0.2c0-0.03-0.03-0.08-0.1-0.15c-0.03,0.03-0.05,0.1-0.05,0.2c0,0.03,0.03,0.08,0.1,0.15V261.08z
		 M548.67,258.38l-0.25,0.7c0.17-0.17,0.25-0.38,0.25-0.65V258.38z M548.58,261.58c0.07,0,0.1-0.03,0.1-0.1v-0.05
		c-0.1,0-0.15,0.03-0.15,0.1C548.52,261.56,548.54,261.58,548.58,261.58z M548.92,260.22c0,0.03,0.01,0.08,0.03,0.15
		c0.02,0.07,0.06,0.1,0.12,0.1c0.07,0,0.17-0.03,0.3-0.1c-0.2-0.07-0.35-0.15-0.45-0.25V260.22z M549.38,260.72l-0.1-0.05v0.05
		c0,0.07,0.02,0.1,0.05,0.1C549.36,260.83,549.38,260.79,549.38,260.72z M549.72,266.47c0.17,0,0.25-0.05,0.25-0.15l-0.35-0.05
		c-0.17,0-0.25,0.05-0.25,0.15L549.72,266.47z M549.72,259.33h0.05c0,0.03,0.02,0.05,0.05,0.05c0.03,0,0.05-0.02,0.05-0.05
		c0-0.07-0.03-0.1-0.1-0.1C549.74,259.22,549.72,259.26,549.72,259.33z M549.97,259.92h-0.05c0,0.03-0.02,0.05-0.05,0.05h-0.05
		c0,0.03,0.02,0.05,0.05,0.05L549.97,259.92z M549.97,260.38h-0.05c0,0.03-0.02,0.05-0.05,0.05h-0.05c0,0.03,0.02,0.05,0.05,0.05
		L549.97,260.38z M550.67,262.28c-0.03-0.17-0.06-0.45-0.08-0.85c-0.02-0.4-0.06-0.63-0.12-0.7l-0.05,0.9
		c0,0.27,0.12,0.52,0.35,0.75c0.17,0.2,0.25,0.35,0.25,0.45v0.05l0.05,0.05c0,0.03-0.05,0.05-0.15,0.05c-0.07,0-0.12,0.02-0.15,0.05
		l-0.85-0.05h0.3l0.55,0.25c0.07,0,0.18-0.02,0.35-0.05c0.17-0.03,0.25-0.08,0.25-0.15c0-0.07-0.04-0.12-0.12-0.15
		c-0.08-0.03-0.16-0.07-0.22-0.1L550.67,262.28z M552.17,256.67c0.17,0,0.39,0.01,0.67,0.03c0.28,0.02,0.51,0.06,0.68,0.12v-0.1
		c-0.23-0.1-0.48-0.17-0.73-0.2c-0.25-0.03-0.51-0.05-0.77-0.05c-0.4,0-0.75,0.06-1.05,0.18c-0.3,0.12-0.63,0.26-1,0.42
		C550.61,256.81,551.34,256.67,552.17,256.67z M550.78,266.17c0,0.03,0.02,0.05,0.05,0.05c0.03,0,0.08-0.03,0.15-0.1
		c-0.03-0.03-0.1-0.05-0.2-0.05c-0.07,0-0.13,0.03-0.2,0.1H550.78z M553.22,259.38l-0.85-0.05c-0.1,0-0.22,0.02-0.38,0.05
		s-0.28,0.08-0.38,0.15l-0.7,0.6c0.1-0.1,0.21-0.21,0.33-0.33c0.12-0.12,0.24-0.21,0.38-0.27c0.23,0,0.52-0.07,0.85-0.2
		L553.22,259.38z M553.42,263.47c0.03,0.1,0.05,0.2,0.05,0.3c0,0.2-0.07,0.35-0.2,0.45c-0.23,0.17-0.5,0.3-0.8,0.4
		c-0.3,0.1-0.6,0.18-0.9,0.25c-0.3,0.07-0.52,0.15-0.65,0.25c0.2,0,0.43-0.01,0.7-0.03c0.27-0.02,0.47-0.12,0.6-0.32
		c0.23-0.07,0.43-0.17,0.6-0.3c0.17-0.13,0.33-0.27,0.5-0.4c0.03-0.1,0.1-0.28,0.2-0.55c0.1-0.27,0.15-0.43,0.15-0.5
		c0-0.4-0.12-0.62-0.35-0.68c-0.23-0.05-0.35-0.12-0.35-0.22c0-0.07,0.13-0.1,0.4-0.1h0.5v0.15l0.4,0.1l0.1,0.1
		c0,0.07,0.02,0.17,0.05,0.33c0.03,0.15,0.08,0.22,0.15,0.22c0.07,0,0.13-0.17,0.2-0.52c0.07-0.35,0.1-0.58,0.1-0.68
		c-0.03,0.07-0.06,0.22-0.08,0.45s-0.04,0.38-0.08,0.45c-0.17-0.1-0.31-0.21-0.42-0.33c-0.12-0.12-0.26-0.21-0.42-0.27v-0.1
		c-0.17-0.1-0.35-0.15-0.55-0.15c-0.3,0-0.45,0.13-0.45,0.4c0,0.07,0.07,0.1,0.2,0.1h0.1l0.15,0.1c0.07,0.17,0.12,0.33,0.15,0.47
		c0.03,0.15,0.05,0.31,0.05,0.48v0.15H553.42z M551.22,265.97c0.43-0.03,0.8-0.12,1.1-0.25s0.63-0.3,1-0.5
		c0.2-0.13,0.4-0.26,0.6-0.38s0.38-0.26,0.55-0.42l0.5-0.5l0.35-0.45l0.25-0.35h-0.15l-0.1,0.35h-0.1l-0.15,0.35
		c-0.4,0.4-0.8,0.72-1.2,0.97s-0.83,0.53-1.3,0.83c-0.43,0-0.78,0.12-1.05,0.35H551.22z M551.62,257.53
		c-0.07,0.07-0.1,0.12-0.1,0.15c0,0.07,0.05,0.1,0.15,0.1c0.13,0,0.2-0.05,0.2-0.15L551.62,257.53z M554.28,257.17
		c0.07,0.07,0.11,0.12,0.12,0.15c0.02,0.03,0.06,0.08,0.12,0.15c-0.07-0.07-0.11-0.12-0.12-0.15
		C554.38,257.29,554.34,257.24,554.28,257.17z M554.62,260.62l-0.05,0.15c0,0.1,0.05,0.17,0.15,0.2v0.25l-0.05,0.05
		c0,0.07,0.03,0.13,0.1,0.2l0.05-0.2c0-0.07-0.03-0.17-0.1-0.3L554.62,260.62z M554.72,258.58c0,0.07,0.02,0.1,0.05,0.1
		c0.03,0,0.05-0.03,0.05-0.1l-0.1-0.05V258.58z M555.38,258.33c-0.07-0.1-0.15-0.18-0.25-0.25
		C555.22,258.14,555.31,258.22,555.38,258.33z M555.67,258.83c0.2,0.5,0.32,1.01,0.35,1.52c0.03,0.52,0.08,1.04,0.15,1.58
		c0.03-0.17,0.06-0.33,0.08-0.47c0.02-0.15,0.03-0.31,0.03-0.48c0-0.53-0.08-0.96-0.23-1.27c-0.15-0.32-0.33-0.71-0.52-1.17
		l-0.05,0.15C555.47,258.78,555.54,258.83,555.67,258.83z M555.78,260.97c0.03,0,0.05-0.02,0.05-0.05s-0.02-0.05-0.05-0.05l-0.1,0.1
		H555.78z M555.67,262.78l0.1,0.05v-0.05c0-0.07-0.02-0.1-0.05-0.1S555.67,262.71,555.67,262.78z M555.92,262.28
		c0.07,0,0.1-0.02,0.1-0.05c0-0.1-0.03-0.15-0.1-0.15V262.28z"/>
</g>
<g>
	<path class="st1" d="M590.29,261.06c0.07,0.23,0.18,0.4,0.35,0.5c0,0.2-0.09,0.34-0.27,0.42c-0.18,0.08-0.39,0.13-0.62,0.15
		c-0.23,0.02-0.47,0.03-0.7,0.03h-0.5c-0.53,0.1-1.02,0.25-1.45,0.45c-0.43,0.2-0.86,0.42-1.27,0.65c-0.42,0.23-0.83,0.47-1.25,0.7
		c-0.42,0.23-0.84,0.42-1.27,0.55l-0.1,0.25c-0.3,0.13-0.54,0.33-0.73,0.58c-0.18,0.25-0.38,0.49-0.57,0.73
		c-0.4,0.5-0.71,0.93-0.93,1.3c-0.22,0.37-0.37,0.74-0.45,1.12c-0.08,0.38-0.12,0.79-0.12,1.22v3c0,0.67,0.01,1.45,0.02,2.35
		c0.02,0.9,0.03,1.87,0.05,2.9c0.02,1.03,0.03,2.07,0.03,3.1c0.03,2.43,0.07,5.12,0.1,8.05l-0.15,0.45
		c0.07,0.43,0.16,1.02,0.27,1.75c0.12,0.73,0.31,1.27,0.58,1.6v0.55c0.33,0.5,0.71,1.17,1.12,2.03c0.42,0.85,0.87,1.72,1.35,2.6
		c0.48,0.88,0.98,1.71,1.48,2.48c0.5,0.77,1,1.3,1.5,1.6c0.2,0.13,0.49,0.23,0.88,0.3c0.38,0.07,0.57,0.27,0.57,0.6
		c0,0.1-0.02,0.2-0.07,0.3c-0.05,0.1-0.14,0.15-0.28,0.15c-0.6,0-1.32-0.01-2.15-0.02c-0.83-0.02-1.67-0.1-2.52-0.25
		c-0.85-0.15-1.63-0.38-2.35-0.7c-0.72-0.32-1.27-0.76-1.67-1.33l-0.45-0.25c-0.13-0.17-0.25-0.32-0.35-0.45
		c-0.1-0.13-0.23-0.27-0.4-0.4l-0.1-0.35l-0.35-0.2l-0.1-0.4l-0.25-0.2c-0.1-0.33-0.3-0.65-0.6-0.95c-0.03-0.1-0.21-0.46-0.52-1.07
		c-0.32-0.62-0.68-1.28-1.1-2c-0.42-0.72-0.81-1.41-1.17-2.08c-0.37-0.67-0.62-1.13-0.75-1.4c-0.43-0.33-0.67-0.62-0.7-0.88
		c-0.03-0.25-0.17-0.59-0.4-1.02l-0.2-0.1c-0.27-0.7-0.61-1.39-1.02-2.08c-0.42-0.68-0.85-1.36-1.3-2.02
		c-0.45-0.67-0.88-1.34-1.3-2.03c-0.42-0.68-0.73-1.38-0.92-2.08l-0.45-0.5c-0.07,2.73-0.1,5.47-0.1,8.2v8.25
		c0,0.53,0.03,0.98,0.08,1.35c0.05,0.37,0.12,0.72,0.2,1.05c0.08,0.33,0.19,0.67,0.32,1c0.13,0.33,0.28,0.73,0.45,1.2l0.35,0.1
		c0.13,0.1,0.32,0.19,0.57,0.28c0.25,0.08,0.49,0.17,0.73,0.25c0.23,0.08,0.43,0.17,0.6,0.25c0.17,0.08,0.25,0.19,0.25,0.32
		c0,0.17-0.21,0.29-0.62,0.38c-0.42,0.08-0.89,0.14-1.43,0.18c-0.37,0.03-0.72,0.05-1.05,0.05c-0.17,0-0.33-0.02-0.5-0.05h-3.8
		c-0.1,0.03-0.18,0.05-0.25,0.05c-0.93,0-1.75-0.1-2.45-0.3v-0.7c0.27-0.07,0.53-0.1,0.8-0.1c0.23,0,0.48-0.05,0.75-0.15l0.1-0.2
		c0.2-0.07,0.39-0.16,0.58-0.28c0.18-0.12,0.31-0.27,0.38-0.47l0.25-0.1c0.23-0.4,0.41-0.85,0.52-1.35c0.12-0.5,0.17-0.97,0.17-1.4
		v-26.2c0-0.83-0.02-1.62-0.05-2.35c-0.03-0.73-0.07-1.35-0.1-1.85c-0.03-0.5-0.07-0.8-0.1-0.9h-0.2v-0.25
		c-0.27-0.23-0.52-0.42-0.75-0.57c-0.23-0.15-0.53-0.23-0.9-0.23h-0.25c-0.23-0.13-0.35-0.38-0.35-0.75c0.33-0.17,0.67-0.25,1-0.25
		h7.8c0.13,0,0.23,0.06,0.27,0.17c0.05,0.12,0.08,0.23,0.08,0.33c0,0.07-0.08,0.15-0.23,0.25c-0.15,0.1-0.32,0.21-0.52,0.33
		c-0.2,0.12-0.4,0.22-0.6,0.33c-0.2,0.1-0.35,0.2-0.45,0.3c-0.07,0.17-0.17,0.38-0.3,0.65c-0.13,0.27-0.2,0.48-0.2,0.65
		c0,0.3,0.05,0.67,0.15,1.1s0.24,0.88,0.42,1.35c0.18,0.47,0.38,0.89,0.6,1.28c0.22,0.38,0.42,0.67,0.62,0.88
		c0.1,0.27,0.31,0.7,0.62,1.3c0.32,0.6,0.66,1.22,1.02,1.88c0.37,0.65,0.72,1.26,1.05,1.83c0.33,0.57,0.58,0.93,0.75,1.1
		c0.2,0.57,0.47,1.18,0.8,1.85c0.33,0.67,0.7,1.34,1.1,2.03c0.4,0.68,0.8,1.34,1.2,1.97c0.4,0.63,0.78,1.2,1.15,1.7
		c-0.07-1.27-0.1-2.52-0.1-3.75c0-1.03,0.03-2.07,0.1-3.1c0.07-2.23,0.1-4.5,0.1-6.8c0-0.43,0.02-1.03,0.05-1.8v-0.55
		c0-0.57-0.03-1.13-0.1-1.7c-0.1-0.7-0.3-1.32-0.6-1.85c-0.3-0.53-0.78-0.8-1.45-0.8c-0.07,0-0.17-0.01-0.3-0.03
		c-0.13-0.02-0.2-0.09-0.2-0.22c0-0.23,0.13-0.41,0.4-0.53c0.27-0.12,0.58-0.21,0.95-0.27c0.37-0.07,0.73-0.13,1.1-0.2
		c0.37-0.07,0.67-0.18,0.9-0.35h0.35c0.4-0.37,1.08-0.75,2.02-1.15c0.95-0.4,1.98-0.78,3.08-1.12c1.1-0.35,2.16-0.63,3.17-0.85
		c1.02-0.22,1.81-0.32,2.38-0.32H590.29z M567.89,303.11c-0.3-0.07-0.6-0.1-0.9-0.1h-0.95c-0.57,0-1.11,0.02-1.62,0.05
		c-0.52,0.03-1.06,0.05-1.62,0.05c-0.17-0.07-0.33-0.1-0.5-0.1h-0.25c-0.07,0.03-0.13,0.05-0.2,0.05c-0.2,0-0.37-0.07-0.5-0.2
		l0.25-0.1c-0.2,0.03-0.4,0.07-0.6,0.1h-0.6l0.5,0.4h1.65c0.1,0,0.18-0.05,0.25-0.15h2.55c0.37,0.03,0.73,0.05,1.1,0.05
		C566.9,303.16,567.39,303.15,567.89,303.11z M561.24,265.71c0.43,0.17,0.74,0.28,0.92,0.33c0.18,0.05,0.34,0.12,0.48,0.2
		c0.13,0.08,0.27,0.2,0.4,0.35c0.13,0.15,0.37,0.41,0.7,0.78l0.2,1.45l0.05-0.55l-0.05-0.55c-0.2-0.4-0.39-0.72-0.57-0.95
		c-0.18-0.23-0.46-0.47-0.83-0.7c0-0.17-0.08-0.25-0.25-0.25h-0.05l-0.05,0.05c-0.17,0-0.25-0.08-0.25-0.25
		c0.23,0.03,0.45,0.07,0.65,0.1h0.65l-0.45-0.3l-1.1,0.05c-0.1,0-0.2,0.01-0.3,0.03S561.24,265.58,561.24,265.71z M562.54,302.26
		c0.57-0.57,0.97-1.23,1.2-2h0.1c-0.03-0.03-0.05-0.08-0.05-0.15c0-0.03,0.03-0.08,0.1-0.15c0.07-0.1,0.1-0.2,0.1-0.3
		c0-0.07-0.05-0.1-0.15-0.1c-0.03,0.23-0.07,0.47-0.12,0.72c-0.05,0.25-0.12,0.47-0.22,0.67c-0.03,0.03-0.08,0.13-0.15,0.3
		c-0.03,0.13-0.08,0.2-0.15,0.2l-0.05-0.05l-0.15,0.4L562.54,302.26l-0.25,0.1L562.54,302.26z M567.34,265.56
		c-0.07,0.03-0.18,0.05-0.35,0.05c-0.07,0-0.13-0.02-0.2-0.05c-0.3,0-0.64-0.01-1.02-0.03c-0.38-0.02-0.76-0.03-1.12-0.03
		c-0.4,0-0.75,0.03-1.05,0.1c0.63,0.03,1.27,0.05,1.9,0.05c0.1,0.03,0.18,0.05,0.25,0.05C566.3,265.71,566.84,265.66,567.34,265.56z
		 M563.99,285.46c0-0.17-0.01-0.34-0.03-0.52c-0.02-0.18-0.09-0.34-0.22-0.48c0.03,0.17,0.05,0.33,0.05,0.5
		c0,0.23-0.02,0.47-0.05,0.7c-0.03,0.13-0.05,0.27-0.05,0.4c0,0.27,0.05,0.48,0.15,0.65v0.5h-0.1c-0.07,0.87-0.1,1.73-0.1,2.6
		c0,0.2,0.02,0.42,0.05,0.65v3.2c0,0.2,0.08,0.42,0.25,0.65v-2.2c0.03-0.7,0.05-1.42,0.05-2.15V285.46z M563.74,295.96
		c0.17-0.17,0.25-0.37,0.25-0.6c0-0.07-0.01-0.21-0.03-0.42c-0.02-0.22-0.04-0.33-0.07-0.33c-0.17,0-0.25,0.08-0.25,0.25
		c0,0.03,0.02,0.08,0.05,0.15c0.03,0.27,0.05,0.48,0.05,0.65V295.96z M563.74,272.71l-0.05,0.35c0,0.17,0.02,0.31,0.08,0.42
		c0.05,0.12,0.07,0.26,0.07,0.42v0.15l-0.05,0.05c0,0.07,0.03,0.1,0.1,0.1c0.03,0,0.05-0.03,0.05-0.1v-1.3L563.74,272.71z
		 M563.84,274.51c-0.07,0.57-0.11,1.18-0.12,1.85c-0.02,0.67-0.02,1.28-0.02,1.85c0,0.1,0.02,0.2,0.05,0.3
		c0.03,0.1,0.1,0.18,0.2,0.25c0-0.47,0.01-0.91,0.02-1.32c0.02-0.42,0.03-0.86,0.03-1.33C563.99,275.61,563.94,275.08,563.84,274.51
		z M563.84,278.91c-0.1,0.1-0.15,0.22-0.15,0.35l0.05,0.05c0,0.17,0.03,0.3,0.1,0.4c0,0.17-0.02,0.34-0.07,0.53
		c-0.05,0.18-0.08,0.38-0.08,0.58c0,0.2,0.08,0.38,0.25,0.55v-0.8c0.03-0.23,0.05-0.48,0.05-0.75
		C563.99,279.48,563.94,279.18,563.84,278.91z M563.74,269.01c0.03,0.33,0.05,0.67,0.05,1v0.8c-0.03,0.13-0.05,0.28-0.05,0.45
		c0,0.47,0.07,0.92,0.2,1.35v-3.45L563.74,269.01z M563.94,283.06v-0.25c0-0.13,0.02-0.27,0.05-0.4v-0.25c0-0.13-0.02-0.27-0.05-0.4
		l-0.05-0.05h-0.05v0.25c0,0.17-0.02,0.32-0.05,0.45c-0.03,0.1-0.05,0.18-0.05,0.25C563.74,282.8,563.8,282.93,563.94,283.06z
		 M563.94,284.36v-0.15c0-0.1,0.02-0.23,0.05-0.4v-0.15c0-0.17-0.07-0.25-0.2-0.25h-0.05v0.15
		C563.74,283.8,563.8,284.06,563.94,284.36z M563.94,299.16v-0.4c0-0.23,0.02-0.48,0.05-0.75c0.03-0.1,0.05-0.22,0.05-0.35
		c0-0.27-0.07-0.52-0.2-0.75c0,0.27-0.01,0.47-0.02,0.62c-0.02,0.15-0.02,0.29-0.02,0.42c-0.03,0.07-0.05,0.13-0.05,0.2
		c0,0.1,0.02,0.18,0.05,0.25C563.79,298.61,563.84,298.86,563.94,299.16z M563.84,296.21c-0.03,0.07-0.05,0.17-0.05,0.3
		c0,0.1,0.02,0.18,0.05,0.25c0.07-0.13,0.1-0.23,0.1-0.3C563.94,296.36,563.9,296.28,563.84,296.21z M566.74,266.91
		c0.17,0,0.33-0.03,0.5-0.1c0.17-0.07,0.25-0.2,0.25-0.4h-3.65c0,0.13,0.08,0.24,0.23,0.33s0.27,0.12,0.38,0.12L566.74,266.91z
		 M563.94,301.31c0.03,0,0.05-0.02,0.05-0.05s-0.02-0.05-0.05-0.05l-0.1,0.1H563.94z M564.19,272.26h-0.05
		c0,0.03-0.02,0.05-0.05,0.05h-0.05c0,0.03,0.02,0.05,0.05,0.05L564.19,272.26z M564.19,301.81h-0.05c0,0.03-0.02,0.05-0.05,0.05
		h-0.05c0,0.03,0.02,0.05,0.05,0.05L564.19,301.81z M564.19,267.46c0,0.2,0.09,0.33,0.27,0.38c0.18,0.05,0.36,0.08,0.53,0.08h0.45
		c0.23,0,0.47-0.01,0.7-0.03c0.23-0.02,0.44-0.05,0.62-0.1c0.18-0.05,0.27-0.11,0.27-0.17v-0.1c-0.17-0.03-0.34-0.06-0.52-0.07
		c-0.18-0.02-0.38-0.03-0.58-0.03h-0.85c-0.07,0.03-0.13,0.05-0.2,0.05c-0.23,0-0.47-0.03-0.7-0.1V267.46z M566.49,268.81
		c0.1,0,0.2-0.01,0.3-0.03c0.1-0.02,0.15-0.09,0.15-0.22c-0.13-0.07-0.27-0.11-0.42-0.12s-0.31-0.03-0.48-0.03
		c-0.27,0-0.53,0.02-0.8,0.05h-0.8l-0.15,0.2c0.3,0.1,0.62,0.15,0.95,0.15H566.49z M566.59,269.36l-2.3,0.05l0.15,0.45
		c0.17-0.07,0.33-0.1,0.5-0.1c0.1,0,0.2,0.02,0.3,0.05c0.23,0.1,0.48,0.15,0.75,0.15h0.1l0.35-0.2c0.07,0.03,0.18,0.07,0.35,0.1
		c0.03,0.03,0.07,0.05,0.1,0.05c0.1,0,0.15-0.07,0.15-0.2v-0.1L566.59,269.36z M564.29,270.71c0.33,0.1,0.72,0.15,1.15,0.15
		c0.33,0,0.67-0.02,1-0.05c0.13-0.03,0.28-0.05,0.45-0.05c0.17,0,0.33,0.02,0.5,0.05l-0.6-0.4l-1.25,0.05h-1.1L564.29,270.71z
		 M564.29,271.66c0.6,0.1,1.2,0.15,1.8,0.15c0.6,0,1.2-0.05,1.8-0.15c-0.33-0.2-0.75-0.3-1.25-0.3h-0.1
		c-0.57,0.03-1.07,0.05-1.5,0.05h-0.5L564.29,271.66z M567.74,272.71c0.07,0.03,0.18,0.07,0.35,0.1h0.1c0.1,0,0.15-0.07,0.15-0.2
		c0-0.13-0.12-0.2-0.35-0.2h-0.5c-0.2,0-0.35-0.02-0.45-0.05c-0.3,0.03-0.6,0.05-0.9,0.05h-0.45c-0.47-0.03-0.93-0.05-1.4-0.05
		c0,0.1,0.04,0.21,0.12,0.33c0.08,0.12,0.17,0.17,0.27,0.17h1.55C566.84,272.86,567.34,272.81,567.74,272.71z M568.94,273.76
		c0-0.13-0.07-0.22-0.2-0.27c-0.13-0.05-0.3-0.08-0.5-0.1c-0.2-0.02-0.38-0.02-0.55-0.02h-0.4c-0.47,0-0.93,0.02-1.4,0.05
		c-0.23,0.03-0.45,0.05-0.65,0.05c-0.27,0-0.53-0.02-0.8-0.05l-0.15,0.25c0.53,0.1,1.08,0.15,1.65,0.15c0.5,0,1-0.03,1.5-0.1h0.65
		C568.35,273.71,568.64,273.73,568.94,273.76z M569.54,274.61c-0.07-0.03-0.31-0.07-0.73-0.1c-0.42-0.03-0.88-0.07-1.4-0.1
		c-0.52-0.03-1.01-0.05-1.48-0.05h-1.5l-0.15,0.25c0.83,0.1,1.72,0.15,2.65,0.15C567.8,274.76,568.67,274.71,569.54,274.61z
		 M570.14,275.56c-0.83-0.17-1.75-0.25-2.75-0.25h-3.1v0.35c0.6,0,1.21,0.01,1.83,0.03c0.62,0.02,1.22,0.02,1.82,0.02
		c0.37,0,0.73-0.01,1.1-0.02C569.4,275.67,569.77,275.63,570.14,275.56z M570.59,276.76c0-0.13-0.06-0.23-0.17-0.3
		c-0.12-0.07-0.24-0.1-0.38-0.1c-0.93,0-1.87,0.02-2.8,0.05h-2.8l-0.15,0.2c0.1,0.03,0.22,0.07,0.35,0.1
		c0.13,0.03,0.27,0.05,0.4,0.05H570.59z M564.29,277.56c0.73,0.1,1.48,0.15,2.25,0.15c0.77,0,1.55-0.02,2.35-0.05h0.75
		c0.53,0,1.05,0.02,1.55,0.05l0.05-0.15c0-0.07-0.05-0.12-0.15-0.15h-0.1c-0.07,0-0.12,0.02-0.15,0.05c-0.47-0.1-1-0.15-1.6-0.15
		h-0.45c-0.77,0.03-1.47,0.05-2.1,0.05c-0.17,0-0.32,0.01-0.48,0.02c-0.15,0.02-0.31,0.04-0.47,0.08c-0.17-0.07-0.4-0.1-0.7-0.1
		C564.8,277.36,564.55,277.43,564.29,277.56z M565.84,278.66v-0.25h-1.55v0.25H565.84z M564.29,279.36l0.4,0.35h0.15
		c0.17,0,0.33-0.04,0.5-0.12c0.17-0.08,0.33-0.16,0.5-0.22H564.29z M564.59,280.66c0.2,0,0.42-0.03,0.65-0.1h0.2
		c0.17,0,0.3,0.03,0.4,0.1c-0.17-0.23-0.37-0.35-0.6-0.35c-0.07,0-0.24,0.02-0.53,0.05s-0.42,0.12-0.42,0.25v0.05H564.59z
		 M565.84,281.61v-0.25h-1.55v0.25H565.84z M564.79,282.31c-0.1,0-0.2,0.01-0.3,0.02c-0.1,0.02-0.17,0.09-0.2,0.23
		c0.13,0.03,0.26,0.06,0.38,0.07c0.12,0.02,0.26,0.03,0.42,0.03c0.13,0,0.28-0.02,0.45-0.05c0.17-0.03,0.27-0.13,0.3-0.3H564.79z
		 M565.84,283.56c0-0.07-0.08-0.11-0.25-0.12c-0.17-0.02-0.33-0.03-0.5-0.03c-0.2,0-0.38,0.02-0.55,0.05
		c-0.17,0.03-0.25,0.07-0.25,0.1v0.05h0.25c0.2,0,0.38-0.02,0.55-0.05c0.07-0.03,0.17-0.05,0.3-0.05c0.13,0,0.28,0.03,0.45,0.1
		V283.56z M565.84,284.36h-1.55v0.2h1.55V284.36z M565.34,285.26c-0.2,0-0.38,0.03-0.55,0.08c-0.17,0.05-0.33,0.11-0.5,0.17h1.55
		L565.34,285.26z M564.29,287.31v0.25h1.55v-0.25H564.29z M565.84,288.36c-0.07-0.03-0.16-0.07-0.27-0.1
		c-0.12-0.03-0.21-0.05-0.27-0.05c-0.43,0-0.77,0.1-1,0.3h1c0.1,0,0.2-0.01,0.3-0.02C565.69,288.47,565.77,288.43,565.84,288.36z
		 M565.84,290.51c0-0.17-0.1-0.25-0.3-0.25s-0.4,0.02-0.6,0.05h-0.25c-0.13,0-0.27-0.02-0.4-0.05c0.03,0.2,0.17,0.3,0.4,0.3
		c0.13,0,0.35-0.05,0.65-0.15h0.25C565.72,290.41,565.8,290.45,565.84,290.51z M564.29,296.46c0.1,0,0.15-0.03,0.15-0.1v-0.05
		L564.29,296.46z M564.29,299.16v0.15c0,0.1,0.02,0.15,0.05,0.15c0.07,0,0.12-0.07,0.15-0.2v-0.1c0-0.07-0.02-0.1-0.05-0.1
		L564.29,299.16z M565.84,286.61c-0.27-0.2-0.53-0.3-0.8-0.3c-0.07,0-0.2,0.01-0.4,0.02c-0.2,0.02-0.3,0.08-0.3,0.17
		c0,0.07,0.03,0.1,0.1,0.1c0.23-0.03,0.47-0.07,0.7-0.1h0.15C565.45,286.51,565.64,286.55,565.84,286.61z M565.49,292.31
		c-0.17,0-0.35-0.02-0.55-0.05h-0.15c-0.17,0-0.32,0.03-0.45,0.1c0.03,0.07,0.15,0.1,0.35,0.1c0.07,0,0.13-0.02,0.2-0.05
		C565.22,292.41,565.42,292.38,565.49,292.31z M564.79,295.26c-0.03,0-0.07,0.01-0.1,0.03c-0.03,0.02-0.08,0.03-0.15,0.03h-0.2
		c0,0.07,0.08,0.1,0.25,0.1h0.25c0.3-0.03,0.48-0.08,0.55-0.15H564.79z M565.84,289.31c-0.1,0.03-0.22,0.05-0.35,0.05h-0.15
		c-0.2-0.03-0.38-0.05-0.55-0.05h-0.2c-0.13,0-0.2,0.03-0.2,0.1l0.05,0.15h0.75C565.49,289.56,565.7,289.48,565.84,289.31z
		 M565.84,291.36c-0.23,0-0.47-0.02-0.7-0.05h-0.2c-0.17,0-0.35,0.03-0.55,0.1c0.03,0.07,0.18,0.1,0.45,0.1
		c0.07,0,0.13-0.02,0.2-0.05C565.44,291.46,565.7,291.43,565.84,291.36z M565.84,294.31h-0.55c-0.23,0-0.43,0.03-0.6,0.1
		c0.03,0.03,0.12,0.05,0.25,0.05h0.3C565.57,294.43,565.77,294.38,565.84,294.31z M565.74,293.26h-0.3
		c-0.13-0.03-0.27-0.05-0.4-0.05c-0.17,0-0.25,0.07-0.25,0.2v0.05l0.25,0.05c0.13,0,0.25-0.02,0.35-0.07
		c0.1-0.05,0.22-0.08,0.35-0.08V293.26z M564.79,297.41c0.07,0.03,0.2,0.05,0.4,0.05c0.2,0,0.3-0.07,0.3-0.2h-0.35L564.79,297.41z
		 M564.89,302.36l-0.1-0.05v0.05c0,0.07,0.02,0.1,0.05,0.1S564.89,302.43,564.89,302.36z M565.14,296.31c-0.17,0-0.27,0.02-0.3,0.05
		c0.07,0.07,0.13,0.1,0.2,0.1c0.03,0,0.1-0.05,0.2-0.15H565.14z M565.39,298.21h-0.25c-0.1,0-0.18,0.03-0.25,0.1
		c0.07,0.03,0.13,0.05,0.2,0.05C565.19,298.36,565.29,298.31,565.39,298.21z M565.19,299.41c-0.07-0.07-0.12-0.1-0.15-0.1
		c-0.1,0-0.15,0.03-0.15,0.1H565.19z M565.39,301.56v-0.1c0-0.13-0.07-0.2-0.2-0.2c-0.1,0-0.15,0.05-0.15,0.15
		c0,0.03,0.03,0.08,0.1,0.15H565.39z M565.64,297.41c0.07,0,0.1-0.03,0.1-0.1v-0.05c-0.1,0-0.15,0.03-0.15,0.1
		C565.59,297.4,565.6,297.41,565.64,297.41z M565.74,296.46c0.07,0,0.1-0.03,0.1-0.1v-0.05L565.74,296.46z M566.14,297.16
		c0,0.17,0.01,0.34,0.02,0.53c0.02,0.18,0.11,0.32,0.27,0.42c-0.03-0.23-0.05-0.45-0.05-0.65v-0.5c0-0.27-0.07-0.52-0.2-0.75
		L566.14,297.16z M566.19,298.36c0.03,0.07,0.05,0.17,0.05,0.3c0,0.1-0.02,0.22-0.05,0.35c-0.03,0.07-0.05,0.13-0.05,0.2
		c0,0.17,0.07,0.28,0.2,0.35v0.2l-0.05,0.05c0,0.07,0.03,0.13,0.1,0.2v-0.9c0-0.17-0.02-0.33-0.05-0.48
		C566.3,298.49,566.25,298.4,566.19,298.36z M566.34,282.56c0.07-0.1,0.1-0.28,0.1-0.55v-1.85c0-0.33,0.03-0.6,0.1-0.8l-0.2-0.35
		c-0.1,0.47-0.15,0.93-0.15,1.4c0,0.37,0.01,0.72,0.02,1.08C566.23,281.84,566.27,282.2,566.34,282.56
		c-0.07,0.27-0.11,0.52-0.12,0.75c-0.02,0.23-0.02,0.48-0.02,0.75c0,0.07,0.01,0.15,0.02,0.25c0.02,0.1,0.06,0.15,0.12,0.15h0.1
		c-0.07-0.27-0.1-0.52-0.1-0.75c0-0.07,0.02-0.13,0.05-0.2v-0.3C566.39,283.01,566.37,282.8,566.34,282.56z M566.19,292.76
		c0,0.53,0.01,1.07,0.02,1.6c0.02,0.53,0.06,1.07,0.12,1.6c0.07-1.6,0.1-3.18,0.1-4.75v-4.75c0-0.33-0.02-0.66-0.05-0.97
		c-0.03-0.32-0.1-0.62-0.2-0.92V292.76z M566.59,300.51v-0.05c0-0.03-0.02-0.07-0.05-0.1c-0.07,0.07-0.1,0.13-0.1,0.2
		c0,0.03,0.03,0.05,0.1,0.05C566.54,300.58,566.55,300.55,566.59,300.51z M566.54,278.41c0.03,0.1,0.17,0.17,0.4,0.22
		c0.23,0.05,0.5,0.08,0.8,0.08h1.35c0.47,0,0.92-0.02,1.35-0.05c0.43-0.03,0.88-0.08,1.35-0.15c-0.17-0.03-0.34-0.06-0.52-0.07
		c-0.18-0.02-0.38-0.03-0.58-0.03h-2.4c-0.2,0.03-0.4,0.05-0.6,0.05C567.29,278.46,566.9,278.45,566.54,278.41z M566.91,301.39
		c0.08,0.12,0.16,0.26,0.23,0.43C567.07,301.65,567,301.5,566.91,301.39c-0.08-0.12-0.16-0.26-0.23-0.42
		C566.75,301.13,566.83,301.27,566.91,301.39z M567.04,280.11c-0.07,0-0.1,0.05-0.1,0.15c0,0.03,0.03,0.05,0.1,0.05V280.11z
		 M572.04,279.76l0.2-0.05v-0.1c0-0.1-0.03-0.18-0.1-0.25c-0.13-0.03-0.27-0.05-0.4-0.05h-1.35c-0.57,0-1.12,0.02-1.65,0.05
		c-0.27,0.03-0.52,0.05-0.75,0.05c-0.3,0-0.62-0.02-0.95-0.05c0,0.17,0.07,0.27,0.2,0.3h0.15c0.07,0,0.15-0.02,0.25-0.05h0.9
		c0.27,0.07,0.55,0.1,0.85,0.1L572.04,279.76z M568.24,271.51c0-0.07-0.04-0.27-0.12-0.62c-0.08-0.35-0.18-0.73-0.28-1.15
		c-0.1-0.42-0.19-0.82-0.27-1.2c-0.08-0.38-0.14-0.66-0.17-0.83c-0.03,0.17-0.06,0.31-0.08,0.42c-0.02,0.12-0.02,0.26-0.02,0.43
		c0,0.83,0.2,1.55,0.6,2.15c0,0.2,0.06,0.38,0.17,0.55c0.12,0.17,0.21,0.33,0.27,0.5L568.24,271.51z M567.49,281.16l0.25,0.45
		l0.25,0.5c0.2,0.27,0.33,0.48,0.4,0.65l0.05-0.15c0-0.1-0.07-0.15-0.2-0.15l-0.5-0.85L567.49,281.16l-0.1-0.25L567.49,281.16z
		 M567.89,266.76c-0.1,0.17-0.18,0.33-0.25,0.5C567.7,267.1,567.79,266.93,567.89,266.76z M572.84,280.56
		c-0.03-0.07-0.29-0.12-0.77-0.15c-0.48-0.03-1.01-0.05-1.57-0.05c-0.6,0-1.17,0.01-1.7,0.02c-0.53,0.02-0.88,0.03-1.05,0.03
		l-0.1-0.1c0.03,0.1,0.11,0.19,0.23,0.27c0.12,0.08,0.22,0.12,0.32,0.12h3.6C572.12,280.71,572.47,280.66,572.84,280.56z
		 M568.44,265.46c-0.13,0-0.23,0.02-0.3,0.05c-0.07,0.03-0.15,0.07-0.25,0.1c0.07,0,0.27,0.02,0.6,0.05c0.33,0.03,0.5,0.08,0.5,0.15
		s-0.05,0.12-0.15,0.15c-0.1,0.03-0.18,0.07-0.25,0.1c0.2-0.1,0.4-0.18,0.6-0.23c0.2-0.05,0.4-0.12,0.6-0.22h-0.25
		c-0.13,0-0.27-0.02-0.4-0.05C568.9,265.5,568.67,265.46,568.44,265.46z M567.99,302.61c0.07,0.07,0.15,0.1,0.25,0.1
		c0.07,0,0.1-0.03,0.1-0.1l-0.35-0.1V302.61z M569.79,302.96c-0.17-0.07-0.33-0.12-0.48-0.15c-0.15-0.03-0.31-0.05-0.48-0.05h-0.15
		c0,0.03,0.05,0.1,0.15,0.2l-0.75,0.25l1.1,0.05c0.1,0,0.21-0.02,0.33-0.05C569.63,303.18,569.72,303.1,569.79,302.96z
		 M568.24,281.61c0.53,0,1.06,0.01,1.57,0.02c0.52,0.02,1.02,0.03,1.52,0.03c0.7,0,1.4-0.05,2.1-0.15c-0.63-0.13-1.28-0.2-1.95-0.2
		h-0.4c-0.83,0.03-1.63,0.05-2.4,0.05h-0.3c-0.1,0.03-0.15,0.1-0.15,0.2V281.61z M568.94,272.61h-0.05c0,0.03-0.02,0.05-0.05,0.05
		h-0.05c0,0.03,0.02,0.05,0.05,0.05L568.94,272.61z M573.64,282.31c-0.7,0.03-1.42,0.05-2.15,0.05c-0.77,0-1.5,0.03-2.2,0.1
		c-0.13-0.13-0.25-0.2-0.35-0.2c-0.07,0-0.1,0.03-0.1,0.1v0.2l2.5,0.05l2.7-0.05L573.64,282.31z M568.84,283.56
		c0,0.07,0.07,0.17,0.2,0.3l-0.2-0.35V283.56z M569.04,302.96c-0.07,0.07-0.12,0.1-0.15,0.1c-0.03,0-0.05-0.03-0.05-0.1H569.04z
		 M569.19,273.06c-0.1,0-0.15,0.03-0.15,0.1v0.05L569.19,273.06z M569.19,278.16c-0.1,0-0.15,0.03-0.15,0.1v0.05L569.19,278.16z
		 M569.79,274.26c0-0.43-0.17-0.72-0.5-0.85C569.39,273.68,569.55,273.96,569.79,274.26z M574.54,283.51l-0.4-0.1
		c-0.1-0.03-0.18-0.05-0.25-0.05h-0.1c-0.1,0.03-0.22,0.05-0.35,0.05l-3.05-0.05l-0.85,0.05h-0.1c-0.03,0-0.07,0.02-0.1,0.05
		c0,0.03,0.07,0.07,0.2,0.1c0.13,0.03,0.22,0.05,0.25,0.05c0.23-0.03,0.48-0.05,0.75-0.05h0.6c0.17,0.03,0.32,0.05,0.45,0.05
		c0.3,0,0.57-0.03,0.8-0.1l0.45,0.1c0.2-0.07,0.38-0.1,0.55-0.1h0.15c0.17,0.03,0.38,0.05,0.65,0.05h0.2
		C574.42,283.56,574.47,283.55,574.54,283.51z M569.79,280.91c0.07,0,0.1-0.03,0.1-0.1v-0.05c-0.1,0-0.15,0.03-0.15,0.1
		C569.74,280.9,569.75,280.91,569.79,280.91z M570.29,284.61c0.77,0,1.57,0.02,2.4,0.05h0.4c0.7,0,1.37-0.07,2-0.2
		c-0.67-0.1-1.33-0.15-2-0.15c-0.57,0-1.1,0.02-1.6,0.05h-1.6L570.29,284.61z M570.24,274.86h-0.05c0,0.03-0.02,0.05-0.05,0.05
		h-0.05c0,0.03,0.02,0.05,0.05,0.05L570.24,274.86z M570.34,275.21c0-0.03-0.02-0.07-0.05-0.1
		C570.32,275.15,570.34,275.18,570.34,275.21c0,0.03,0.03,0.05,0.1,0.05C570.44,275.23,570.4,275.21,570.34,275.21z M575.59,285.41
		c-0.53-0.07-1.05-0.1-1.55-0.1c-0.33,0-0.67,0.02-1,0.05c-0.33,0.03-0.67,0.05-1,0.05c-0.5,0-1.02-0.03-1.55-0.1l0.4,0.3
		c0.37-0.03,0.73-0.05,1.1-0.05c0.4,0,0.83,0.02,1.3,0.05h0.4C574.39,285.61,575.02,285.55,575.59,285.41z M570.96,276.31
		c0.08,0.13,0.16,0.28,0.23,0.45c0.03,0.03,0.1,0.13,0.2,0.3s0.2,0.34,0.3,0.52c0.1,0.18,0.2,0.36,0.3,0.53
		c0.1,0.17,0.15,0.27,0.15,0.3c0-0.03-0.05-0.13-0.15-0.3c-0.1-0.17-0.2-0.34-0.3-0.53c-0.1-0.18-0.2-0.36-0.3-0.52
		s-0.17-0.27-0.2-0.3C571.12,276.6,571.05,276.45,570.96,276.31c-0.08-0.13-0.16-0.27-0.22-0.4
		C570.8,276.05,570.88,276.18,570.96,276.31z M570.79,286.91l-0.05,0.1c0,0.07,0.07,0.13,0.2,0.2L570.79,286.91z M571.44,286.61
		c0.5-0.03,0.98-0.05,1.45-0.05h0.75c0.7,0.03,1.42,0.05,2.15,0.05h0.2c0.1,0,0.15-0.03,0.15-0.1c0-0.1-0.15-0.15-0.45-0.15h-0.6
		l-3.1-0.05l-0.8,0.05h-0.1c-0.03,0-0.05,0.02-0.05,0.05c0,0.07,0.06,0.12,0.17,0.15C571.33,286.6,571.4,286.61,571.44,286.61z
		 M571.19,287.81l0.1,0.05v-0.05c0-0.07-0.02-0.1-0.05-0.1C571.2,287.71,571.19,287.75,571.19,287.81z M571.54,287.31l0.5,0.3
		c0.77,0,1.55-0.02,2.35-0.05c0.4-0.03,0.8-0.05,1.2-0.05c0.4,0,0.8,0.02,1.2,0.05l-0.5-0.3h-2.15c-0.83,0-1.65,0.05-2.45,0.15
		L571.54,287.31z M571.91,289.09c0.02,0.08,0.06,0.14,0.12,0.17l0.05-0.15c0-0.1-0.07-0.18-0.2-0.25
		C571.89,288.93,571.9,289,571.91,289.09z M577.24,288.36c-0.53-0.07-1.05-0.1-1.55-0.1c-0.33,0-0.67,0.02-1,0.05
		c-0.33,0.03-0.67,0.05-1,0.05c-0.5,0-1.02-0.03-1.55-0.1l0.45,0.3h2.35c0.07,0.03,0.13,0.05,0.2,0.05
		C575.84,288.61,576.54,288.53,577.24,288.36z M572.14,289.56l0.1,0.05v-0.05l-0.1-0.05V289.56z M572.49,279.01
		c0,0.07,0.01,0.15,0.02,0.25c0.02,0.1,0.06,0.15,0.12,0.15c0.07,0,0.1-0.05,0.1-0.15c0-0.03-0.03-0.12-0.1-0.25H572.49l-0.1-0.25
		L572.49,279.01z M573.24,289.26c-0.1,0-0.21,0.02-0.33,0.05c-0.12,0.03-0.17,0.12-0.17,0.25c0.2-0.03,0.4-0.05,0.6-0.05h0.3
		c0.3,0.03,0.6,0.05,0.9,0.05h1.05c0.53,0,1.1-0.02,1.7-0.05c0.6-0.03,1.13-0.06,1.6-0.07c0.47-0.02,0.72-0.06,0.75-0.12
		c-0.6,0.03-1.2,0.05-1.8,0.05h-0.85c-0.9-0.03-1.8-0.05-2.7-0.05L573.24,289.26z M572.94,279.76l-0.05,0.15
		c0,0.1,0.07,0.15,0.2,0.15l0.1,0.25l0.15,0.1c0.07,0.17,0.13,0.3,0.2,0.4c0.07,0.1,0.13,0.23,0.2,0.4l0.05-0.15
		c0-0.1-0.07-0.15-0.2-0.15c-0.1-0.17-0.18-0.33-0.25-0.5l-0.15-0.1L572.94,279.76z M573.79,290.41c-0.13-0.07-0.25-0.1-0.35-0.1
		s-0.17,0.02-0.2,0.05c0.1,0.1,0.2,0.15,0.3,0.15S573.72,290.48,573.79,290.41z M573.44,291.51l-0.05,0.15c0,0.1,0.07,0.15,0.2,0.15
		l0.2,0.5L573.44,291.51z M573.94,281.51c-0.03,0-0.05,0.03-0.05,0.1c0,0.07,0.05,0.1,0.15,0.1c0,0.13,0.02,0.2,0.05,0.2
		s0.05-0.07,0.05-0.2h-0.1L573.94,281.51z M574.24,291.46c-0.07-0.07-0.13-0.1-0.2-0.1c-0.07,0-0.1,0.03-0.1,0.1H574.24z
		 M574.04,290.41c0.07,0.07,0.17,0.1,0.3,0.1c0.2,0,0.33-0.08,0.4-0.25L574.04,290.41z M574.39,282.46l0.15,0.1
		c0.03,0.07,0.07,0.14,0.1,0.22c0.03,0.08,0.07,0.16,0.1,0.22c-0.03-0.07-0.07-0.14-0.1-0.22c-0.03-0.08-0.07-0.16-0.1-0.22
		L574.39,282.46l-0.1-0.25L574.39,282.46z M574.49,291.06c0-0.03-0.03-0.05-0.1-0.05l-0.05-0.1v0.05c0,0.03,0.02,0.05,0.05,0.05
		L574.49,291.06z M574.49,291.41c0.03,0.03,0.07,0.05,0.1,0.05h0.15c0.23,0.07,0.47,0.1,0.7,0.1h0.65c0.63,0,1.26-0.03,1.88-0.1
		c0.62-0.07,1.24-0.1,1.88-0.1h-5.2C574.54,291.36,574.49,291.38,574.49,291.41z M574.89,292.31l-0.4,0.05v0.05
		c0.03,0,0.05-0.02,0.05-0.05h0.05l0.05,0.05h1.3c0.23,0,0.47-0.03,0.7-0.1H574.89z M574.79,294.04c-0.1-0.18-0.18-0.38-0.25-0.58
		C574.6,293.66,574.69,293.85,574.79,294.04c0.1,0.18,0.2,0.36,0.3,0.53C574.99,294.4,574.89,294.22,574.79,294.04z M574.99,293.26
		c0.27,0.2,0.5,0.3,0.7,0.3c0.13,0,0.23-0.03,0.3-0.08c0.07-0.05,0.13-0.09,0.2-0.12L574.99,293.26z M575.54,265.46
		c-0.1,0-0.2,0.02-0.3,0.05c-0.1,0.03-0.15,0.12-0.15,0.25v0.05h0.85v0.15c0.1,0.1,0.22,0.15,0.35,0.15c0.07,0,0.15-0.02,0.25-0.05
		c-0.07-0.03-0.22-0.09-0.45-0.18c-0.23-0.08-0.35-0.16-0.35-0.22l0.1-0.05h0.1c0.07,0,0.15-0.01,0.25-0.03
		c0.1-0.02,0.18-0.06,0.25-0.12H575.54z M575.34,290.51l0.35-0.1c0.17,0.03,0.34,0.07,0.52,0.1c0.18,0.03,0.36,0.05,0.53,0.05
		c0.17,0,0.33-0.05,0.5-0.15c-0.27-0.03-0.52-0.08-0.75-0.12c-0.23-0.05-0.48-0.08-0.75-0.08c-0.33,0-0.55,0.07-0.65,0.2
		L575.34,290.51z M575.24,283.86c0.07,0.37,0.22,0.65,0.45,0.85C575.69,284.35,575.54,284.06,575.24,283.86z M575.84,295.61
		c-0.1,0-0.15,0.03-0.15,0.1v0.05L575.84,295.61z M576.04,296.21c0-0.03-0.02-0.11-0.05-0.22c-0.03-0.12-0.07-0.17-0.1-0.17
		c-0.03,0-0.05,0.03-0.05,0.1v0.05L576.04,296.21z M576.64,286.36c-0.07-0.2-0.15-0.38-0.25-0.55s-0.22-0.33-0.35-0.5
		c0.17,0.23,0.34,0.54,0.52,0.92c0.18,0.38,0.31,0.58,0.38,0.58l0.05-0.1L576.64,286.36z M576.14,296.56c0,0.07,0.05,0.12,0.15,0.15
		v-0.05c0-0.07-0.03-0.13-0.1-0.2C576.15,296.5,576.14,296.53,576.14,296.56z M576.19,295.36h0.55c0.17,0,0.33-0.03,0.5-0.1
		L576.19,295.36z M576.54,293.46h0.3c0.23,0,0.48,0.02,0.75,0.05c0.1,0.03,0.2,0.05,0.3,0.05c0.23,0,0.45-0.07,0.65-0.2
		c-0.33,0-0.67-0.02-1-0.05h-0.2C577.07,293.31,576.8,293.36,576.54,293.46z M576.94,296.31c-0.1,0-0.15,0.02-0.15,0.05
		c0,0.07,0.12,0.1,0.35,0.1c0,0.03,0.02,0.05,0.05,0.05c0.17,0,0.27-0.07,0.3-0.2H576.94z M577.06,297.99
		c-0.08-0.15-0.17-0.31-0.27-0.48C576.89,297.68,576.98,297.84,577.06,297.99c0.08,0.15,0.19,0.31,0.33,0.47
		C577.25,298.3,577.15,298.14,577.06,297.99z M576.99,266.56l0.15,0.3l0.05-0.15C577.19,266.61,577.12,266.56,576.99,266.56
		l-0.1-0.15L576.99,266.56z M578.69,292.31c-0.27,0-0.55-0.02-0.85-0.05h-0.2c-0.23,0-0.45,0.03-0.65,0.1
		c0,0.03,0.12,0.05,0.35,0.05h0.9C578.44,292.41,578.59,292.38,578.69,292.31z M577.44,265.31c-0.03-0.03-0.08-0.05-0.15-0.05
		c-0.03,0-0.08,0.03-0.15,0.1C577.3,265.36,577.4,265.35,577.44,265.31z M577.24,267.01c0.17,0.37,0.27,0.75,0.3,1.15
		c0.03,0.4,0.05,0.78,0.05,1.15c0,0.47-0.02,0.92-0.05,1.38c-0.03,0.45-0.05,0.91-0.05,1.38v0.6c0,0.23,0.03,0.45,0.1,0.65v0.15
		c0,0.03,0.02,0.07,0.05,0.1c0.03,0,0.06-0.05,0.07-0.15c0.02-0.1,0.03-0.17,0.03-0.2l0.05-0.95v-1.15c0-0.53-0.02-1.08-0.05-1.65
		c-0.03-0.57-0.09-1.08-0.18-1.55C577.48,267.45,577.37,267.15,577.24,267.01z M577.46,287.91c0.12,0.13,0.21,0.28,0.28,0.45v-10.65
		h-0.15v2.95c0,0.4,0.01,0.88,0.03,1.45c0.02,0.57,0.02,1.17,0.02,1.8v1.85c0,0.57-0.02,1.04-0.05,1.43s-0.07,0.59-0.1,0.62
		l-0.25-0.4C577.27,287.61,577.35,287.78,577.46,287.91z M577.49,276.06h-0.05c0,0.03-0.02,0.05-0.05,0.05h-0.05
		c0,0.03,0.02,0.05,0.05,0.05L577.49,276.06z M577.49,294.91h-0.05c0,0.03-0.02,0.05-0.05,0.05h-0.05c0,0.03,0.02,0.05,0.05,0.05
		L577.49,294.91z M577.49,283.86l-0.1-0.05v0.05c0,0.07,0.02,0.1,0.05,0.1C577.47,283.96,577.49,283.93,577.49,283.86z
		 M581.04,265.46c-0.23,0.03-0.45,0.05-0.65,0.05c-0.1,0-0.2-0.02-0.3-0.05h-1.05c-0.27,0-0.54,0.02-0.83,0.05
		c-0.28,0.03-0.52,0.13-0.72,0.3c0.23,0.03,0.43,0.05,0.6,0.05h0.3c0.23-0.03,0.52-0.05,0.85-0.05l0.4,0.15l0.55-0.15
		c0.1,0.03,0.2,0.05,0.3,0.05c0.1,0,0.2,0.03,0.3,0.1L581.04,265.46z M577.74,274.51c0-0.07-0.01-0.19-0.03-0.38
		c-0.02-0.18-0.04-0.27-0.07-0.27c-0.03,0-0.05,0.08-0.05,0.25c-0.03,0.03-0.05,0.07-0.05,0.1
		C577.54,274.35,577.6,274.45,577.74,274.51z M577.64,274.86c-0.07,0-0.1,0.07-0.1,0.2c0,0.03,0.02,0.07,0.05,0.1v0.4
		c0,0.07,0.01,0.13,0.03,0.2c0.02,0.07,0.04,0.1,0.07,0.1v-0.85l-0.05-0.1V274.86z M577.74,295.26c-0.1,0-0.17,0.02-0.2,0.05
		c0.03,0.03,0.1,0.05,0.2,0.05c0.07,0,0.13-0.03,0.2-0.1H577.74z M578.49,266.96h0.45c0.2,0,0.41-0.02,0.62-0.05
		c0.22-0.03,0.41-0.08,0.58-0.15c0.17-0.07,0.25-0.15,0.25-0.25l-0.05-0.1h-2.75v0.1c0,0.23,0.11,0.37,0.33,0.4
		C578.13,266.95,578.32,266.96,578.49,266.96z M577.74,276.41c0-0.13-0.03-0.2-0.1-0.2c-0.03,0-0.05,0.02-0.05,0.05
		c0,0.13,0.03,0.2,0.1,0.2C577.72,276.46,577.74,276.45,577.74,276.41z M577.74,277.01c0-0.03-0.01-0.09-0.03-0.17
		c-0.02-0.08-0.04-0.12-0.07-0.12c-0.03,0-0.05,0.02-0.05,0.05L577.74,277.01z M579.74,290.46c0-0.1-0.1-0.16-0.3-0.17
		c-0.2-0.02-0.33-0.03-0.4-0.03l-1.45,0.05l0.5,0.2c0.27-0.07,0.55-0.1,0.85-0.1c0.27,0,0.53,0.03,0.8,0.1V290.46z M578.54,298.21
		h-0.4c-0.17,0-0.25,0.02-0.25,0.05c0,0.07,0.1,0.1,0.3,0.1l0.05,0.05C578.4,298.41,578.5,298.35,578.54,298.21z M577.94,267.71
		c0.2,0.03,0.41,0.08,0.62,0.12c0.22,0.05,0.43,0.08,0.62,0.08c0.43,0,0.65-0.15,0.65-0.45v-0.1c-0.13,0.07-0.28,0.1-0.45,0.1
		c-0.03,0-0.07-0.02-0.1-0.05h-0.55c-0.2,0-0.38,0.02-0.53,0.05C578.06,267.5,577.97,267.58,577.94,267.71z M578.89,296.31h-0.45
		c-0.3,0-0.45,0.03-0.45,0.1c0,0.07,0.07,0.1,0.2,0.1c0.03,0,0.1-0.02,0.2-0.05C578.65,296.43,578.82,296.38,578.89,296.31z
		 M578.09,268.66c0.17,0.03,0.34,0.06,0.53,0.08c0.18,0.02,0.36,0.02,0.52,0.02c0.07,0,0.17-0.01,0.3-0.02
		c0.13-0.02,0.2-0.06,0.2-0.12v-0.05c-0.17-0.03-0.34-0.06-0.52-0.08c-0.18-0.02-0.36-0.03-0.53-0.03c-0.07,0-0.17,0.01-0.3,0.03
		c-0.13,0.02-0.2,0.06-0.2,0.12V268.66z M578.44,269.76c0.23,0.1,0.5,0.15,0.8,0.15c0.1,0,0.2-0.02,0.3-0.05s0.15-0.1,0.15-0.2
		l-0.05-0.15c-0.2-0.07-0.38-0.1-0.55-0.1c-0.17,0-0.33,0.01-0.5,0.03c-0.17,0.02-0.33,0.04-0.5,0.07v0.1c0,0.13,0.05,0.2,0.15,0.2
		L578.44,269.76z M579.64,270.56c-0.17-0.03-0.33-0.06-0.5-0.08c-0.17-0.02-0.33-0.03-0.5-0.03c-0.07,0-0.18,0.01-0.33,0.03
		s-0.23,0.08-0.23,0.17v0.05c0.17,0.03,0.33,0.06,0.48,0.08c0.15,0.02,0.31,0.03,0.48,0.03c0.07,0,0.18-0.01,0.35-0.03
		c0.17-0.02,0.25-0.08,0.25-0.17V270.56z M579.64,271.51c-0.17-0.03-0.33-0.06-0.5-0.07c-0.17-0.02-0.33-0.03-0.5-0.03
		c-0.07,0-0.18,0.01-0.33,0.03s-0.23,0.07-0.23,0.17v0.05c0.17,0.03,0.33,0.06,0.48,0.08s0.31,0.02,0.48,0.02
		c0.07,0,0.18-0.01,0.35-0.02c0.17-0.02,0.25-0.08,0.25-0.17V271.51z M578.49,272.86c0.13,0,0.36-0.03,0.67-0.08
		c0.32-0.05,0.48-0.09,0.48-0.12v-0.2l-0.55-0.05l-1,0.05L578.49,272.86z M578.44,273.76l0.5,0.05c0.07,0,0.2-0.01,0.4-0.03
		c0.2-0.02,0.3-0.08,0.3-0.17v-0.05c-0.1-0.1-0.25-0.15-0.45-0.15h-0.6c-0.07,0.03-0.13,0.05-0.2,0.05c-0.1,0-0.2-0.02-0.3-0.05
		L578.44,273.76z M578.09,274.61c0.17,0.03,0.34,0.06,0.53,0.08c0.18,0.02,0.36,0.02,0.52,0.02c0.07,0,0.17-0.01,0.3-0.02
		c0.13-0.02,0.2-0.06,0.2-0.12v-0.05c-0.1-0.1-0.22-0.15-0.35-0.15c-0.13,0-0.33,0.02-0.6,0.05c-0.1,0.03-0.18,0.05-0.25,0.05
		c-0.13,0-0.22-0.03-0.25-0.1L578.09,274.61z M579.64,275.46c-0.17-0.03-0.31-0.06-0.43-0.08c-0.12-0.02-0.26-0.02-0.42-0.02
		c-0.1,0-0.23,0.01-0.4,0.02c-0.17,0.02-0.27,0.11-0.3,0.28l1.1,0.05c0.07,0,0.15-0.02,0.25-0.05S579.6,275.56,579.64,275.46z
		 M578.44,276.76h0.35c0.07,0,0.23-0.01,0.48-0.02s0.38-0.08,0.38-0.17v-0.05c-0.17-0.1-0.33-0.15-0.5-0.15
		c-0.17,0-0.33,0.02-0.5,0.05h-0.55L578.44,276.76z M579.14,277.71c0.1,0,0.2-0.01,0.3-0.02s0.17-0.09,0.2-0.23
		c-0.33-0.07-0.6-0.1-0.8-0.1c-0.13,0-0.28,0.02-0.45,0.05c-0.17,0.03-0.27,0.13-0.3,0.3H579.14z M578.09,278.41v0.25h1.55v-0.25
		H578.09z M579.14,279.61c0.07,0.03,0.17,0.05,0.3,0.05l0.05,0.05c0.1,0,0.15-0.05,0.15-0.15v-0.1c-0.13-0.07-0.23-0.1-0.3-0.1
		c-0.2,0-0.4,0.02-0.6,0.05h-0.25c-0.13,0-0.27-0.02-0.4-0.05l0.35,0.35c0.13,0,0.25-0.01,0.35-0.02S579,279.65,579.14,279.61z
		 M578.19,280.06c-0.07,0-0.1,0.03-0.1,0.1v0.05L578.19,280.06z M578.99,280.36c-0.13,0-0.28,0.01-0.45,0.02
		c-0.17,0.02-0.32,0.08-0.45,0.18c0.17,0.03,0.33,0.06,0.48,0.07c0.15,0.02,0.31,0.03,0.48,0.03c0.1,0,0.23-0.01,0.38-0.03
		c0.15-0.02,0.23-0.09,0.23-0.22L578.99,280.36z M578.09,281.36v0.25h1.55v-0.25H578.09z M579.64,282.31h-0.8
		c-0.3,0-0.55,0.08-0.75,0.25c0.1,0.03,0.21,0.07,0.33,0.1c0.12,0.03,0.23,0.05,0.33,0.05c0.1,0,0.27-0.02,0.52-0.08
		C579.51,282.59,579.64,282.48,579.64,282.31z M578.09,283.41v0.2h1.55v-0.2H578.09z M578.09,284.36v0.2h1.55v-0.2H578.09z
		 M579.64,285.46c0-0.1-0.03-0.15-0.1-0.15h-0.05c-0.1,0.03-0.18,0.07-0.25,0.1c-0.13,0-0.32-0.02-0.55-0.05h-0.15
		c-0.2,0-0.35,0.05-0.45,0.15h1.55V285.46z M578.09,286.46c0.13,0.13,0.28,0.2,0.45,0.2c0.1,0,0.22-0.03,0.35-0.1
		c0.1-0.03,0.22-0.05,0.35-0.05c0.13,0,0.27,0.03,0.4,0.1v-0.1c0-0.13-0.1-0.2-0.3-0.2c-0.2,0-0.41,0.02-0.62,0.05
		S578.29,286.43,578.09,286.46z M579.09,288.51c0.27,0,0.45-0.05,0.55-0.15c-0.17-0.03-0.34-0.07-0.52-0.1
		c-0.18-0.03-0.38-0.05-0.58-0.05c-0.27,0-0.42,0.1-0.45,0.3H579.09z M578.09,297.41c0.07,0,0.1-0.03,0.1-0.1v-0.05L578.09,297.41z
		 M579.44,301.01c-0.13-0.17-0.3-0.32-0.5-0.45l-0.55-0.65l-0.3-0.35l0.25,0.3c0.2,0.27,0.38,0.48,0.55,0.65
		c0.07,0.07,0.22,0.2,0.45,0.4c0.2,0.17,0.3,0.28,0.3,0.35v0.05l0.35,0.1C579.75,301.31,579.57,301.18,579.44,301.01z
		 M578.19,265.11h0.1c0.03,0,0.05-0.02,0.05-0.05s-0.02-0.05-0.05-0.05L578.19,265.11z M579.64,287.56c-0.03-0.2-0.18-0.3-0.45-0.3
		c-0.13,0-0.32,0.03-0.55,0.1c-0.1,0.03-0.18,0.05-0.25,0.05c-0.1,0-0.17-0.03-0.2-0.1c0,0.17,0.1,0.25,0.3,0.25h0.1
		c0.17,0,0.35-0.02,0.55-0.05h0.15C579.42,287.51,579.54,287.53,579.64,287.56z M578.79,279.81c-0.1,0-0.15,0.03-0.15,0.1
		c0,0.03,0.02,0.05,0.05,0.05c0.07,0,0.1-0.03,0.1-0.1V279.81z M578.69,295.36h0.35c0,0.03,0.02,0.05,0.05,0.05
		c0.1,0,0.15-0.03,0.15-0.1v-0.05c-0.07,0-0.17-0.02-0.3-0.05h-0.1c-0.1,0-0.15,0.03-0.15,0.1V295.36z M579.99,294.31
		c-0.2,0-0.42-0.02-0.65-0.05h-0.15c-0.17,0-0.32,0.03-0.45,0.1c0,0.07,0.12,0.1,0.35,0.1c0.07,0,0.13-0.02,0.2-0.05
		C579.65,294.41,579.89,294.38,579.99,294.31z M578.79,293.36l0.4,0.2c0.23,0,0.45-0.1,0.65-0.3L578.79,293.36z M579.64,296.46
		c0.1,0,0.17-0.02,0.2-0.05c-0.03-0.03-0.1-0.05-0.2-0.05c-0.03,0-0.08,0.03-0.15,0.1H579.64z M579.74,270.11h-0.05
		c0,0.03-0.02,0.05-0.05,0.05h-0.05c0,0.03,0.02,0.05,0.05,0.05L579.74,270.11z M579.64,296.86l0.15-0.15l0.05-0.1l-0.1,0.1
		L579.64,296.86z M579.99,272.11c0.03,1.23,0.05,2.47,0.05,3.7v2.75c-0.07,2.17-0.1,4.33-0.1,6.5c0,0.67,0.03,1.33,0.1,2v0.9
		c0,0.4-0.02,0.78-0.05,1.15c0.03-0.13,0.07-0.49,0.1-1.08c0.03-0.58,0.07-1.21,0.1-1.88v-1.9c-0.03-0.57-0.07-0.93-0.1-1.1
		c0.17-1.1,0.25-2.25,0.25-3.45v-0.95c-0.07-1.53-0.1-3-0.1-4.4C580.24,273.7,580.15,272.95,579.99,272.11z M580.09,289.56
		c-0.1,0-0.15,0.03-0.15,0.1l0.05,0.05L580.09,289.56z M580.09,292.31h-0.05c0,0.03-0.02,0.05-0.05,0.05h-0.05
		c0,0.03,0.02,0.05,0.05,0.05L580.09,292.31z M580.94,264.91c0.2,0,0.41-0.03,0.62-0.08c0.22-0.05,0.36-0.19,0.43-0.42
		c-0.2,0.03-0.42,0.05-0.65,0.05h-0.55c-0.37,0-0.63,0.13-0.8,0.4L580.94,264.91z M580.44,267.01c-0.1,0.17-0.15,0.32-0.15,0.45
		l0.05,0.15c-0.17,0.27-0.27,0.56-0.3,0.88c-0.03,0.32-0.05,0.62-0.05,0.92c0,0.37,0.02,0.74,0.05,1.12
		c0.03,0.38,0.05,0.76,0.05,1.12c0.1-0.4,0.15-0.82,0.15-1.25c0-0.7-0.02-1.27-0.05-1.7v-0.15c0-0.4,0.13-0.92,0.4-1.55H580.44z
		 M580.29,299.41c-0.07-0.07-0.13-0.1-0.2-0.1c-0.07,0-0.1,0.03-0.1,0.1H580.29z M580.24,295.26c-0.1,0-0.17,0.02-0.2,0.05
		c0.03,0.03,0.1,0.05,0.2,0.05c0.07,0,0.13-0.03,0.2-0.1H580.24z M580.24,290.16v-0.05c0-0.07-0.03-0.13-0.1-0.2
		c-0.03,0.07-0.05,0.13-0.05,0.2c0,0.1,0.03,0.2,0.1,0.3C580.19,290.35,580.2,290.26,580.24,290.16z M580.44,291.81
		c-0.03-0.17-0.06-0.33-0.07-0.5c-0.02-0.17-0.04-0.33-0.08-0.5c0.03,0.17,0.06,0.33,0.08,0.5
		C580.38,291.48,580.4,291.65,580.44,291.81z M580.69,296.31c-0.17,0-0.27,0.02-0.3,0.05c0.07,0.07,0.13,0.1,0.2,0.1
		c0.03,0,0.1-0.05,0.2-0.15H580.69z M581.14,294.06c-0.03-0.37-0.12-0.7-0.27-1c-0.15-0.3-0.29-0.63-0.43-1
		c0.17,0.33,0.27,0.67,0.3,1.02C580.77,293.44,580.9,293.76,581.14,294.06c0.03,0.17,0.07,0.33,0.1,0.5
		c0.03,0.17,0.13,0.28,0.3,0.35L581.14,294.06z M580.69,296.71h-0.05c0,0.03-0.02,0.05-0.05,0.05h-0.05c0,0.03,0.02,0.05,0.05,0.05
		L580.69,296.71z M580.69,298.36c0.1,0,0.17-0.02,0.2-0.05c-0.03,0-0.06-0.01-0.08-0.03c-0.02-0.02-0.04-0.03-0.07-0.03
		c-0.1,0-0.15,0.03-0.15,0.1H580.69z M580.74,266.71l0.05-0.05l0.1-0.15l0.1-0.15l-0.05,0.05l-0.1,0.15L580.74,266.71z
		 M581.09,295.36c-0.07-0.07-0.12-0.1-0.15-0.1c-0.1,0-0.15,0.03-0.15,0.1H581.09z M580.79,297.41c0.1,0,0.15-0.03,0.15-0.1v-0.05
		L580.79,297.41z M581.04,297.06h-0.05c0,0.03-0.02,0.05-0.05,0.05h-0.05c0,0.03,0.02,0.05,0.05,0.05L581.04,297.06z M581.04,297.66
		h-0.05c0,0.03-0.02,0.05-0.05,0.05h-0.05c0,0.03,0.02,0.05,0.05,0.05L581.04,297.66z M581.04,263.61c0.03,0,0.06,0.01,0.08,0.02
		c0.02,0.02,0.04,0.03,0.07,0.03c0.07,0,0.1-0.03,0.1-0.1C581.19,263.56,581.1,263.58,581.04,263.61z M581.24,301.21
		c-0.1,0-0.15,0.02-0.15,0.05s0.1,0.07,0.3,0.1h0.1c0.13,0,0.22-0.05,0.25-0.15H581.24z M581.14,298.36c0.1,0,0.15-0.03,0.15-0.1
		v-0.05L581.14,298.36z M581.39,265.81c0.07-0.07,0.18-0.16,0.35-0.28c0.17-0.12,0.25-0.22,0.25-0.33c0-0.07-0.03-0.1-0.1-0.1
		c-0.17,0.07-0.25,0.18-0.25,0.35v0.15L581.39,265.81h-0.1v0.4L581.39,265.81z M581.89,302.51l-0.6-0.25v0.1
		c0.1,0.1,0.23,0.15,0.4,0.15H581.89z M581.54,297.41c0.1,0,0.17-0.02,0.2-0.05c-0.03-0.03-0.1-0.05-0.2-0.05
		c-0.03,0-0.08,0.03-0.15,0.1H581.54z M582.24,263.11c-0.13,0.03-0.24,0.08-0.33,0.15c-0.08,0.07-0.17,0.13-0.27,0.2
		c0.1-0.07,0.19-0.13,0.27-0.2C582,263.2,582.1,263.15,582.24,263.11z M582.09,296.11c-0.03-0.17-0.09-0.33-0.17-0.48
		c-0.08-0.15-0.17-0.31-0.27-0.47c0.07,0.37,0.18,0.65,0.35,0.85c0.17,0.2,0.33,0.43,0.5,0.7
		C582.42,296.58,582.29,296.38,582.09,296.11z M582.34,263.96c0.17,0,0.33-0.04,0.5-0.12c0.17-0.08,0.28-0.21,0.35-0.38h-0.25
		c-0.23,0-0.42,0.04-0.57,0.12c-0.15,0.08-0.31,0.19-0.48,0.33L582.34,263.96z M581.99,300.36h0.1c0.03,0,0.05-0.02,0.05-0.05
		c0-0.03-0.02-0.05-0.05-0.05L581.99,300.36z M582.34,299.76l-0.1-0.05v0.05c0,0.07,0.02,0.1,0.05,0.1
		C582.32,299.86,582.34,299.83,582.34,299.76z M582.49,302.61c-0.17,0-0.25,0.02-0.25,0.05s0.06,0.07,0.17,0.1
		c0.12,0.03,0.25,0.07,0.4,0.1c0.15,0.03,0.29,0.06,0.43,0.08c0.13,0.02,0.22,0.02,0.25,0.02h0.2c0.07,0,0.1-0.03,0.1-0.1
		c-0.23,0-0.46-0.04-0.67-0.12C582.9,302.65,582.69,302.61,582.49,302.61z M582.49,302.16c0.07,0,0.1-0.03,0.1-0.1v-0.05
		c-0.1,0-0.15,0.03-0.15,0.1C582.44,302.15,582.45,302.16,582.49,302.16z M582.59,264.66c0.1,0,0.15-0.03,0.15-0.1l-0.05-0.05
		c-0.07,0-0.1,0.03-0.1,0.1V264.66z M582.74,297.41c0-0.03,0.01-0.06,0.02-0.08c0.02-0.02,0.02-0.04,0.02-0.08
		c0-0.07-0.03-0.1-0.1-0.1C582.69,297.26,582.7,297.35,582.74,297.41z M582.69,299.31c0.03,0.03,0.08,0.05,0.15,0.05
		c0.07,0,0.1-0.02,0.1-0.05c-0.07,0-0.11-0.02-0.12-0.05c-0.02-0.03-0.04-0.05-0.07-0.05C582.7,299.21,582.69,299.25,582.69,299.31z
		 M582.94,297.51c-0.1,0-0.15,0.03-0.15,0.1l0.05,0.05L582.94,297.51z M582.94,300.26h-0.05c0,0.03-0.02,0.05-0.05,0.05h-0.05
		c0,0.03,0.02,0.05,0.05,0.05L582.94,300.26z M583.39,262.76c0-0.07-0.05-0.1-0.15-0.1c-0.03,0-0.05,0.03-0.05,0.1h-0.25
		c0.07,0.07,0.13,0.1,0.2,0.1c0.03,0,0.05-0.03,0.05-0.1H583.39z M583.29,297.91c-0.07,0-0.1,0.05-0.1,0.15
		c0,0.03,0.03,0.05,0.1,0.05l0.05,0.25c0-0.03,0.01-0.06,0.03-0.08c0.02-0.02,0.02-0.04,0.02-0.08c0-0.07-0.03-0.1-0.1-0.1V297.91z
		 M583.54,298.61c0-0.07-0.03-0.1-0.1-0.1C583.44,298.58,583.47,298.61,583.54,298.61l0.05,0.05v-0.05H583.54z M583.44,300.11v0.2
		c0,0.07,0.02,0.1,0.05,0.1c0.07,0,0.12-0.07,0.15-0.2v-0.05c0-0.1-0.03-0.15-0.1-0.15L583.44,300.11z M583.74,263.76h-0.05
		c-0.03,0-0.05,0.02-0.05,0.05l-0.05,0.1c0.03,0,0.05-0.03,0.05-0.1L583.74,263.76z M583.89,302.36c-0.1,0-0.15,0.03-0.15,0.1
		c0,0.03,0.02,0.05,0.05,0.05c0.07,0,0.1-0.03,0.1-0.1V302.36z M583.89,263.71c0.1,0,0.15-0.03,0.15-0.1l-0.05-0.05
		c-0.07,0-0.1,0.03-0.1,0.1V263.71z M586.94,303.11c-0.5,0-1-0.05-1.5-0.15c-0.2-0.03-0.38-0.05-0.55-0.05c-0.33,0-0.67,0.07-1,0.2
		c0.57,0.03,1.14,0.07,1.73,0.1c0.58,0.03,1.16,0.05,1.72,0.05c0.33,0,0.53-0.1,0.6-0.3c-0.07-0.07-0.15-0.1-0.25-0.1
		c-0.23,0-0.43,0.08-0.6,0.25H586.94z M583.99,299.31c0-0.03-0.02-0.07-0.05-0.1C583.97,299.25,583.99,299.28,583.99,299.31
		c0,0.03,0.03,0.05,0.1,0.05C584.09,299.33,584.05,299.31,583.99,299.31z M589.24,261.51c0.17,0,0.35,0.03,0.55,0.1
		c0.1,0.07,0.2,0.1,0.3,0.1c0.07,0,0.13-0.02,0.2-0.05l-0.5-0.25c-0.4,0-0.85,0.02-1.35,0.05c-0.5,0.03-1.01,0.09-1.52,0.17
		c-0.52,0.08-1.02,0.19-1.52,0.33c-0.5,0.13-0.92,0.28-1.25,0.45c0.27-0.13,0.54-0.22,0.82-0.25s0.56-0.12,0.83-0.25h0.25
		c0.3,0,0.58-0.03,0.85-0.1c0.33-0.1,0.68-0.15,1.05-0.15c0.27,0,0.5,0.05,0.7,0.15c-0.53,0.03-0.97,0.12-1.3,0.25
		c-0.33,0.13-0.73,0.28-1.2,0.45c0.37-0.17,0.78-0.3,1.25-0.4c0.47-0.1,0.88-0.2,1.25-0.3c0.1,0.03,0.2,0.05,0.3,0.05
		c0.23,0,0.45-0.07,0.65-0.2c-0.1,0.03-0.18,0.05-0.25,0.05c-0.13,0-0.25-0.05-0.35-0.15L589.24,261.51z M584.14,301.41v0.2
		c0,0.07,0.02,0.1,0.05,0.1c0.07,0,0.12-0.07,0.15-0.2v-0.05c0-0.1-0.03-0.15-0.1-0.15L584.14,301.41z M584.39,263.21
		c0,0.07,0.05,0.1,0.15,0.1c0.03,0,0.05-0.03,0.05-0.1H584.39z M584.44,299.81l-0.05,0.15c0,0.1,0.07,0.15,0.2,0.15l0.15,0.25
		c0,0.13,0.05,0.25,0.15,0.35c0.1,0.1,0.2,0.18,0.3,0.25c0-0.13-0.05-0.25-0.15-0.35c-0.1-0.1-0.2-0.18-0.3-0.25L584.44,299.81z
		 M585.79,262.61c-0.23,0-0.47,0.12-0.7,0.35L585.79,262.61z M585.49,301.36v0.05h0.05c0,0.07,0.03,0.1,0.1,0.1
		c0-0.07-0.03-0.1-0.1-0.1L585.49,301.36z"/>
</g>
</svg>
