<svg fill="#000000" xmlns="http://www.w3.org/2000/svg"  viewBox="0 0 30 30" width="30px" height="30px"><path d="M 15.025391 2 A 1.0001 1.0001 0 0 0 14.029297 2.7578125 L 12.53125 8.7539062 L 6.5136719 5.1425781 A 1.0001 1.0001 0 0 0 6.0390625 5 A 1.0001 1.0001 0 0 0 5.9394531 5.0019531 A 1.0001 1.0001 0 0 0 5.1425781 6.5136719 L 8.7519531 12.53125 L 2.7578125 14.029297 A 1.0001 1.0001 0 0 0 2.7578125 15.970703 L 8.7539062 17.46875 L 5.1425781 23.486328 A 1.0001 1.0001 0 0 0 6.5136719 24.857422 L 12.53125 21.246094 L 14.029297 27.242188 A 1.0001 1.0001 0 0 0 15.970703 27.242188 L 17.46875 21.246094 L 23.486328 24.857422 A 1.0001 1.0001 0 0 0 24.857422 23.486328 L 21.246094 17.46875 L 27.242188 15.970703 A 1.0001 1.0001 0 0 0 27.242188 14.029297 L 21.246094 12.53125 L 24.857422 6.5136719 A 1.0001 1.0001 0 0 0 24.009766 5 A 1.0001 1.0001 0 0 0 23.486328 5.1425781 L 17.46875 8.7539062 L 15.970703 2.7578125 A 1.0001 1.0001 0 0 0 15.025391 2 z M 15 7.125 L 15 15 L 16.693359 13.306641 A 1.0001 1.0001 0 0 0 17.158203 13.570312 L 19.203125 14.082031 A 1.0001 1.0001 0 0 0 19.683594 14.201172 L 22.875 15 L 15 15 L 16.693359 16.693359 A 1.0001 1.0001 0 0 0 16.429688 17.158203 L 15.917969 19.203125 A 1.0001 1.0001 0 0 0 15.798828 19.683594 L 15 22.875 L 15 15 L 13.306641 16.693359 A 1.0001 1.0001 0 0 0 12.841797 16.429688 L 10.701172 15.894531 A 1.0001 1.0001 0 0 0 10.402344 15.820312 L 7.125 15 L 15 15 L 13.306641 13.306641 A 1.0001 1.0001 0 0 0 13.570312 12.841797 L 14.082031 10.796875 A 1.0001 1.0001 0 0 0 14.201172 10.316406 L 15 7.125 z M 8.9140625 8.9140625 L 12.023438 10.78125 L 11.775391 11.775391 L 10.78125 12.023438 L 8.9140625 8.9140625 z M 21.085938 8.9140625 L 19.21875 12.023438 L 18.224609 11.775391 L 17.976562 10.78125 L 21.085938 8.9140625 z M 10.78125 17.976562 L 11.775391 18.224609 L 12.023438 19.21875 L 8.9140625 21.085938 L 10.78125 17.976562 z M 19.21875 17.976562 L 21.085938 21.085938 L 17.976562 19.21875 L 18.224609 18.224609 L 19.21875 17.976562 z"/></svg>